<?xml version="1.0" standalone="no"?>
<!DOCTYPE svg PUBLIC "-//W3C//DTD SVG 1.1//EN" "http://www.w3.org/Graphics/SVG/1.1/DTD/svg11.dtd" >
<svg xmlns="http://www.w3.org/2000/svg">
<metadata></metadata>
<defs>
<font id="rubik_mono_oneregular" horiz-adv-x="1740" >
<font-face units-per-em="2048" ascent="1638" descent="-410" />
<missing-glyph horiz-adv-x="500" />
<glyph horiz-adv-x="0" />
<glyph unicode="&#xd;" horiz-adv-x="681" />
<glyph horiz-adv-x="0" />
<glyph horiz-adv-x="0" />
<glyph unicode=" " />
<glyph unicode="!" d="M608 55v346q0 23 16.5 39.5t39.5 16.5h413q23 0 39.5 -16.5t16.5 -39.5v-346q0 -23 -16.5 -39t-39.5 -16h-413q-23 0 -39.5 16.5t-16.5 38.5zM608 600v770q0 29 15.5 46.5t40.5 17.5h415q23 0 39.5 -16.5t16.5 -43.5l-2 -780q0 -20 -16.5 -35.5t-39.5 -15.5h-413 q-25 0 -40.5 15t-15.5 42z" />
<glyph unicode="&#x22;" d="M279 881v4l75 489q4 31 32 55.5t67 24.5h378q18 0 32 -13.5t14 -26.5t-3 -19l-194 -494q-25 -66 -94 -65h-262q-18 0 -31.5 13t-13.5 32zM862 881v4l76 489q4 31 31.5 55.5t66.5 24.5h379q18 0 31.5 -13.5t13.5 -26.5t-2 -19l-194 -494q-25 -66 -95 -65h-262 q-18 0 -31.5 13t-13.5 32z" />
<glyph unicode="#" d="M199 348v262q0 20 15 36t36 16h166l22 155h-135q-20 0 -35.5 15.5t-15.5 35.5v242q0 20 15.5 35.5t35.5 15.5h186l23 137q8 43 49 43h258q18 0 31.5 -13t13.5 -32v-6l-20 -129h174l22 137q8 43 50 43h258q18 0 31.5 -13t13.5 -32v-6l-21 -129h121q23 0 37 -15.5t14 -35.5 v-242q0 -20 -14 -35.5t-37 -15.5h-172l-23 -155h142q23 0 37 -15.5t14 -36.5v-262q0 -20 -14.5 -35.5t-36.5 -15.5h-195l-26 -174q-6 -43 -52 -43h-258q-18 0 -31.5 13t-13.5 32v4l27 168h-174l-27 -174q-6 -43 -51 -43h-258q-18 0 -31.5 13t-13.5 32v4l26 168h-112 q-20 0 -35.5 15.5t-15.5 35.5zM762 655h186l27 168h-187z" />
<glyph unicode="$" d="M133 416q0 45 47 45h420q43 0 70 -27q57 -55 198 -55q195 0 195 59q0 37 -61.5 58.5t-243.5 42.5q-580 70 -580 444q0 174 131 296t359 159v145q0 23 16 39t39 16h274q23 0 39.5 -16t16.5 -39v-145q231 -41 369.5 -163t138.5 -245q0 -20 -13.5 -32.5t-36.5 -12.5h-440 q-35 0 -63 25q-49 45 -148 45q-137 0 -137 -58q0 -31 53 -48t213 -36q336 -39 478.5 -144t142.5 -299t-151.5 -318.5t-405.5 -159.5v-131q0 -23 -16.5 -39.5t-39.5 -16.5h-274q-23 0 -39 16.5t-16 39.5v131q-260 33 -397.5 150.5t-137.5 273.5z" />
<glyph unicode="%" d="M35 981v188q0 141 101.5 213t260 72t260 -73t101.5 -210v-192q0 -139 -98.5 -211t-262.5 -72t-263 72t-99 213zM221 41q0 12 8 22l992 1332q28 39 73 39h172q49 0 50 -41q0 -12 -9 -23l-991 -1331q-29 -39 -74 -39h-172q-49 0 -49 41zM330 981q0 -29 19.5 -49.5t48 -20.5 t48 20.5t19.5 49.5v193q0 29 -19.5 48t-48 19t-48 -20t-19.5 -47v-193zM977 266v189q0 141 101.5 212.5t260 71.5t260 -72.5t101.5 -209.5v-193q0 -139 -98.5 -210.5t-262 -71.5t-263 71.5t-99.5 212.5zM1272 266q0 -29 19.5 -49t48 -20t48 20.5t19.5 48.5v193 q0 29 -19.5 48t-48 19t-48 -20t-19.5 -47v-193z" />
<glyph unicode="&#x26;" d="M145 412q0 240 267 389q-115 139 -115 286.5t135 258t378 110.5t369 -108.5t126 -262.5q0 -219 -254 -366l133 -137q39 35 94 147q8 20 41 21h332q16 0 26.5 -10.5t10.5 -26.5q0 -61 -84 -196.5t-158 -213.5l246 -240q12 -12 12 -27.5t-11.5 -25.5t-25.5 -10h-432 q-27 0 -51 20l-56 50q-176 -98 -395 -99q-283 0 -435.5 113t-152.5 328zM612.5 440q-0.5 -55 40.5 -89t104.5 -34t92.5 21l-182 184q-55 -27 -55.5 -82zM745 1065q0 -35 60 -90q86 39 86 100q0 68 -74 68q-29 0 -50.5 -21.5t-21.5 -56.5z" />
<glyph unicode="'" d="M573 883v4l76 489q4 31 32 55.5t67 24.5h378q18 0 31.5 -13t13.5 -26.5t-2 -19.5l-194 -494q-25 -66 -94 -65h-263q-18 0 -31.5 13t-13.5 32z" />
<glyph unicode="(" d="M526 348v567q0 326 192.5 500t483.5 174q18 0 31.5 -13t13.5 -32v-291q0 -18 -12 -30.5t-27 -14.5q-117 -14 -189.5 -91t-72.5 -204v-563q0 -127 73 -203.5t189 -91.5q14 -2 26.5 -14t12.5 -31v-291q0 -18 -13 -31.5t-32 -13.5q-291 0 -483.5 174.5t-192.5 499.5z" />
<glyph unicode=")" d="M494 10q0 18 12 30.5t26 14.5q117 14 190 91t73 204v563q0 127 -73 204t-190 91q-14 2 -26 14.5t-12 30.5v291q0 18 13 31.5t32 13.5q291 0 483 -174t192 -500v-567q0 -326 -192.5 -500t-482.5 -174q-18 0 -31.5 13.5t-13.5 31.5v291z" />
<glyph unicode="*" d="M428 1126q0 4 2 15l55 200q8 33 43 33q10 0 23 -6l170 -68l-35 164q-2 8 -2 18.5t13.5 25t31.5 14.5h287q18 0 31.5 -13.5t13.5 -26t-2 -20.5l-35 -162l170 68q12 6 23 6q35 0 43 -33l53 -200q2 -10 2 -15q0 -41 -41 -45l-178 -16l143 -135q16 -16 16 -37t-16 -33 l-180 -129q-12 -10 -35 -10t-35 27l-117 182l-116 -182q-10 -27 -34 -27t-36 10l-182 131q-14 10 -14.5 30.5t14.5 35.5l143 137l-176 16q-43 4 -43 45z" />
<glyph unicode="+" d="M279 578v284q0 23 16 39.5t39 16.5h325v309q0 23 16.5 39t39.5 16h311q23 0 39 -16.5t16 -38.5v-309h326q23 0 39 -16.5t16 -39.5v-284q0 -23 -16 -39.5t-39 -16.5h-326v-319q0 -23 -16 -39.5t-39 -16.5h-311q-23 0 -39.5 16.5t-16.5 39.5v319h-325q-23 0 -39 16.5 t-16 39.5z" />
<glyph unicode="," d="M573 -139l76 489q4 31 32 55.5t67 24.5h378q18 0 31.5 -13.5t13.5 -26.5t-2 -19l-194 -494q-25 -66 -94 -65h-263q-18 0 -31.5 13t-13.5 32v4z" />
<glyph unicode="-" d="M424 535v290q0 23 16 39.5t39 16.5h785q23 0 39 -16.5t16 -39.5v-290q0 -23 -16.5 -39.5t-38.5 -16.5h-785q-23 0 -39 16.5t-16 39.5z" />
<glyph unicode="." d="M600 55v377q0 23 16 39t39 16h430q23 0 39.5 -16t16.5 -39v-377q0 -23 -16.5 -39t-39.5 -16h-430q-23 0 -39 16.5t-16 38.5z" />
<glyph unicode="/" d="M291 -132q0 13 4 23l727 1657q22 62 90 62h293q18 0 31.5 -13.5t13.5 -27t-4 -23.5l-733 -1657q-25 -61 -90 -61h-287q-18 0 -31.5 13.5t-13.5 26.5z" />
<glyph unicode="0" d="M184 535v364q0 272 194.5 413.5t491.5 141.5t491.5 -141.5t194.5 -409.5v-373q0 -272 -189 -411t-497.5 -139t-497 139t-188.5 416zM737 514q0 -57 39 -95t94.5 -38t94.5 39t39 94v410q0 57 -38 95t-95.5 38t-95.5 -39t-38 -94v-410z" />
<glyph unicode="1" d="M213 1086.5q0 21.5 27 41.5l454 297q14 8 33 9h422q23 0 39 -16.5t16 -39.5v-958h326q23 0 39 -16.5t16 -38.5v-310q0 -23 -16.5 -39t-38.5 -16h-1237q-23 0 -39 16.5t-16 38.5v310q0 23 16 39t39 16h379v491l-207 -137q-18 -12 -37.5 -12t-40.5 29l-166 258 q-8 16 -8 37.5z" />
<glyph unicode="2" d="M211 55v252q0 78 53 111q348 219 521 350t173 203q0 25 -3 40t-21.5 28.5t-54 13.5t-60 -16.5t-33 -33t-16.5 -46t-10 -33.5q-8 -23 -58 -23h-415q-20 0 -35.5 14.5t-15.5 36.5q0 229 179 365.5t480 136.5t454.5 -118.5t153.5 -338.5q0 -111 -71 -200q-39 -49 -75 -87 t-104 -89q-162 -121 -290 -201h538q23 0 39 -16.5t16 -38.5v-310q0 -23 -16 -39t-39 -16h-1235q-23 0 -39 16.5t-16 38.5z" />
<glyph unicode="3" d="M170 406q0 20 13.5 32.5t31.5 12.5h449q23 0 45 -21.5t32 -30.5q33 -23 124 -22.5t130 31t39 77.5q0 90 -157 90h-273q-23 0 -39 16.5t-16 39.5v166q0 59 43 82l301 155h-574q-23 0 -39 16.5t-16 39.5v288q0 23 16.5 39.5t38.5 16.5h1119q23 0 39 -16.5t16 -39.5v-260 q0 -47 -43 -82l-254 -164q391 -91 391 -423q0 -211 -199.5 -340t-510.5 -129q-420 0 -609 204q-98 109 -98 222z" />
<glyph unicode="4" d="M135 285v303q0 35 23 63l620 748q29 35 76 35h467q23 0 39 -16.5t16 -39.5v-733h178q25 0 41.5 -16.5t16.5 -38.5v-305q0 -23 -16.5 -39.5t-39.5 -16.5h-180v-174q0 -23 -16.5 -39t-38.5 -16h-412q-23 0 -39 16.5t-16 38.5v174h-664q-23 0 -39 16.5t-16 39.5zM633 623 h235v288z" />
<glyph unicode="5" d="M178 438q0 18 13.5 31.5t31.5 13.5h414q47 1 74 -32q55 -72 137 -72t124 33.5t42 93t-43 92.5t-105.5 33t-105.5 -24.5t-53 -24.5h-408q-18 0 -31.5 13t-13.5 28v14l80 711q4 39 30.5 62.5t65.5 23.5h973q23 0 39 -16.5t16 -39.5v-288q0 -23 -16.5 -39.5t-38.5 -16.5 h-649l-17 -141q113 70 313.5 70t356.5 -135.5t156 -347.5t-193.5 -356t-510 -144t-499 133t-182.5 325z" />
<glyph unicode="6" d="M199 500q0 207 202 461l342 432q29 41 80 41h412q18 0 31.5 -13.5t13.5 -30t-8 -28.5l-252 -348q16 2 51 2t97.5 -11.5t137 -47t134 -91t96.5 -145.5t37 -201q0 -238 -193.5 -389t-488.5 -151t-493.5 140t-198.5 380zM717 512q0 -63 50 -98t122 -35t122 35t50 98t-50 98 t-122 35t-122 -35t-50 -98z" />
<glyph unicode="7" d="M244 1069v309q0 23 16 39.5t39 16.5h1182q25 0 40 -16.5t15 -39.5v-301q0 -57 -27 -104l-497 -926q-27 -47 -84 -47h-461q-18 0 -31.5 13.5t-13.5 27.5t4 22l528 951h-655q-23 0 -39 16.5t-16 38.5z" />
<glyph unicode="8" d="M166 455.5q0 199.5 182 302.5q-139 104 -139 273t172 296t488.5 127t486.5 -125t170 -297t-144 -274q197 -104 197 -304t-185.5 -337t-523.5 -137t-521 138t-183 337.5zM707 434q0 -53 48 -81.5t115.5 -28.5t115.5 27.5t48 82.5q-2 55 -49 88t-113.5 33t-115.5 -34 t-49 -87zM721 996.5q0 -50.5 44 -80t105.5 -29.5t106.5 29.5t45 78.5t-45 80t-106.5 31t-105.5 -29.5t-44 -80z" />
<glyph unicode="9" d="M178 913q0 238 193.5 389.5t488.5 151.5t493.5 -140t198.5 -380q0 -102 -39.5 -207.5t-160.5 -247.5l-375 -438q-35 -41 -80 -41h-430q-18 0 -31.5 13.5t-13.5 29.5t8 29l301 348q-16 -2 -51 -2t-97.5 11t-137 47t-134 91.5t-96.5 145.5t-37 200zM690 923.5 q0 -63.5 50.5 -98t122 -34.5t121.5 34.5t50 98t-50 98.5t-121.5 35t-122 -35t-50.5 -98.5z" />
<glyph unicode=":" d="M606 55v367q0 23 16.5 39t39.5 16h415q23 0 39.5 -16.5t16.5 -38.5v-367q0 -23 -16.5 -39t-39.5 -16h-415q-23 0 -39.5 16.5t-16.5 38.5zM606 754v366q0 23 16.5 39.5t39.5 16.5h415q23 0 39.5 -16.5t16.5 -39.5v-366q0 -23 -16.5 -39.5t-39.5 -16.5h-415 q-23 0 -39.5 16.5t-16.5 39.5z" />
<glyph unicode=";" d="M539 -139l75 489q4 31 32 55.5t67 24.5h379q18 0 31.5 -13.5t13.5 -26.5t-2 -19l-195 -494q-25 -66 -94 -65h-262q-18 0 -31.5 13t-13.5 32v4zM608 752v366q0 23 16.5 39.5t39.5 16.5h415q23 0 39.5 -16.5t16.5 -39.5v-366q0 -23 -16.5 -39.5t-39.5 -16.5h-415 q-23 0 -39.5 16.5t-16.5 39.5z" />
<glyph unicode="&#x3c;" d="M338 674v86q0 47 59 86l860 553q10 6 25.5 6t28 -12.5t12.5 -30.5v-332q0 -37 -16.5 -51t-20.5 -16q-27 -20 -29 -21l-358 -225l358 -225q8 0 30 -19.5t24 -26.5q12 -27 12 -43v-331q0 -18 -12.5 -30.5t-27.5 -12.5t-26 6l-860 553q-59 39 -59 86z" />
<glyph unicode="=" d="M381 328v237q0 23 16 39.5t39 16.5h871q23 0 39 -16.5t16 -39.5v-237q0 -23 -16.5 -39.5t-38.5 -16.5h-871q-23 0 -39 16.5t-16 39.5zM381 840v237q0 23 16 39.5t39 16.5h871q23 0 39 -16.5t16 -39.5v-237q0 -23 -16.5 -39.5t-38.5 -16.5h-871q-23 0 -39 16.5t-16 39.5z " />
<glyph unicode="&#x3e;" d="M420 72v331q0 37 16.5 51.5t20.5 16.5q27 20 28 21l359 225l-359 225q-8 0 -29.5 19.5t-25.5 25.5q-10 27 -10 43v332q0 18 12 30.5t27.5 12.5t25.5 -6l861 -553q59 -39 59 -86v-86q0 -47 -59 -86l-861 -553q-10 -6 -25.5 -6t-27.5 12t-12 31z" />
<glyph unicode="?" d="M201 987v2q0 168 164 309q81 70 220.5 113t318.5 43t313.5 -41t199.5 -104q123 -119 123 -240q0 -82 -42 -154.5t-94 -116.5t-116.5 -99.5t-88 -90.5t-30.5 -43q-20 -23 -49 -22h-479q-14 0 -26.5 11t-12.5 23.5t2 18.5q20 63 79.5 124.5t119.5 100.5q154 100 153 156 q0 76 -90 76q-51 0 -77.5 -19.5t-31.5 -44t-25.5 -44t-57.5 -19.5h-422q-23 0 -37 18.5t-14 42.5zM616 55v346q0 23 16.5 39.5t39.5 16.5h415q23 0 39.5 -16.5t16.5 -39.5v-346q0 -23 -16.5 -39t-39.5 -16h-415q-23 0 -39.5 16.5t-16.5 38.5z" />
<glyph unicode="@" d="M20 563v291q0 301 224.5 488.5t655.5 187.5t625.5 -184.5t194.5 -497.5v-238q0 -154 -102 -251t-283 -97q-233 0 -303 115q-78 -100 -264 -100.5t-262 103t-76 314.5t76 315.5t252 104.5q111 0 164 -35q18 -12 36 -28l19 -17v8q0 23 16.5 39.5t38.5 16.5h189 q23 0 39 -16.5t16 -39.5v-434q0 -109 72 -108q47 0 61 27.5t14 80.5v244q0 231 -135 325.5t-385 94.5q-244 0 -407 -86q-84 -45 -131.5 -130t-47.5 -202v-285q0 -453 584 -452q170 0 239.5 13t108.5 44t58 31h307q18 0 30.5 -12.5t12.5 -29t-10 -30.5q-104 -133 -266 -203.5 t-476 -70.5q-438 0 -661.5 191.5t-223.5 512.5zM764 695.5q0 -74.5 17.5 -112.5t68.5 -38q96 0 96 154.5t-96 154.5q-51 0 -68.5 -42t-17.5 -116.5z" />
<glyph unicode="A" d="M51 39q0 12 2 18l447 1309q18 68 92 68h569q74 0 92 -68l447 -1309q2 -6 2 -18t-13.5 -25.5t-31.5 -13.5h-387q-66 0 -92 70l-52 143h-499l-52 -143q-26 -70 -92 -70h-387q-18 0 -31.5 13.5t-13.5 25.5zM731 612h291l-145 426z" />
<glyph unicode="B" d="M174 55v1323q0 23 16.5 39.5t38.5 16.5h824q291 0 429 -105.5t138 -318.5v-6q0 -98 -53.5 -168t-110.5 -88q80 -25 137.5 -108t57.5 -189q0 -451 -578 -451h-844q-23 0 -39 16.5t-16 38.5zM707 352h297q47 0 70.5 32t23.5 71v2q0 39 -25.5 67.5t-68.5 28.5h-297v-201z M707 895h274q41 0 62.5 29.5t21.5 66.5t-21.5 63.5t-62.5 26.5h-274v-186z" />
<glyph unicode="C" d="M129 596v242q0 207 104 350q197 266 658 266q186 0 335.5 -48t239.5 -126q180 -158 181 -348q0 -18 -13.5 -31.5t-31.5 -13.5h-443q-45 0 -72.5 55t-68.5 84t-132 29t-147.5 -45t-56.5 -129v-328q0 -84 56.5 -129t147.5 -45t132 28.5t68.5 84t72.5 55.5h443 q18 0 31.5 -13.5t13.5 -31.5q0 -190 -181 -348q-90 -78 -239.5 -126t-352 -48t-369.5 62t-271.5 204.5t-104.5 349.5z" />
<glyph unicode="D" d="M156 55v1323q0 23 16 39.5t39 16.5h653q225 0 391 -59.5t268.5 -201t102.5 -352.5v-209q0 -328 -221 -477q-203 -135 -541 -135h-653q-23 0 -39 16.5t-16 38.5zM688 399h186q96 0 152.5 46.5t56.5 129.5v283q0 84 -56 130t-153 46h-186v-635z" />
<glyph unicode="E" d="M184 55v1323q0 23 16.5 39.5t39.5 16.5h1273q23 0 39.5 -16.5t16.5 -39.5v-288q0 -23 -16.5 -39.5t-39.5 -16.5h-796v-129h684q23 0 39 -16.5t16 -38.5v-266q0 -23 -16.5 -39.5t-38.5 -16.5h-684v-129h817q23 0 39 -16t16 -39v-289q0 -23 -16.5 -39t-38.5 -16h-1294 q-23 0 -39.5 16.5t-16.5 38.5z" />
<glyph unicode="F" d="M205 55v1323q0 23 16 39.5t39 16.5h1303q23 0 39 -16.5t16 -39.5v-311q0 -23 -16.5 -39t-38.5 -16h-805v-131h672q23 0 39 -16.5t16 -39.5v-309q0 -23 -16.5 -39t-38.5 -16h-672v-406q0 -23 -16.5 -39t-39.5 -16h-442q-23 0 -39 16.5t-16 38.5z" />
<glyph unicode="G" d="M119 596v242q0 158 60.5 278.5t168.5 194.5q213 143 543 143q164 0 300 -38t217 -94t138 -122q100 -115 101 -203q0 -18 -13.5 -31.5t-31.5 -13.5h-463q-41 0 -60 23q-63 80 -172.5 80t-172 -43t-62.5 -111v-348q0 -82 61.5 -128t173 -46t172 44t62.5 103h-127 q-23 0 -39.5 16.5t-16.5 39.5v227q0 23 16.5 39t39.5 16h594q23 0 39 -16.5t16 -38.5v-217q0 -311 -212 -461.5t-560 -150.5t-560 150.5t-212 465.5z" />
<glyph unicode="H" d="M133 55v1323q0 23 16.5 39.5t38.5 16.5h422q23 0 39.5 -16.5t16.5 -39.5v-420h409v420q0 23 16 39.5t39 16.5h422q23 0 39.5 -16.5t16.5 -39.5v-1323q0 -23 -16.5 -39t-39.5 -16h-422q-23 0 -39 16.5t-16 38.5v437h-409v-437q0 -23 -16.5 -39t-39.5 -16h-422 q-23 0 -39 15.5t-16 39.5z" />
<glyph unicode="I" d="M166 55v310q0 23 16.5 39t38.5 16h375v594h-375q-23 0 -39 16.5t-16 38.5v309q0 23 16.5 39.5t38.5 16.5h1299q23 0 39 -16.5t16 -39.5v-309q0 -23 -16 -39t-39 -16h-371v-594h371q23 0 39 -16.5t16 -38.5v-310q0 -23 -16.5 -39t-38.5 -16h-1299q-23 0 -39 16.5t-16 38.5 z" />
<glyph unicode="J" d="M55 502q0 18 13.5 31.5t31.5 13.5h463q37 0 51 -45q39 -123 197 -123q96 0 152.5 45t56.5 129v461h-748q-23 0 -39 16.5t-16 38.5v309q0 23 16.5 39.5t38.5 16.5h1246q23 0 39 -16.5t16 -39.5v-782q0 -311 -205 -463.5t-547 -152.5q-186 0 -337.5 48t-241.5 126 q-186 162 -187 348z" />
<glyph unicode="K" d="M188 55v1323q0 23 16.5 39.5t39.5 16.5h422q23 0 39 -16.5t16 -39.5v-385l323 406q31 35 76 35h494q18 0 31.5 -13.5t13.5 -31t-10 -29.5l-486 -592l553 -696q8 -12 8 -28.5t-13 -30t-32 -13.5h-528q-47 0 -74 33l-356 440v-418q0 -23 -16.5 -39t-38.5 -16h-422 q-23 0 -39.5 16.5t-16.5 38.5z" />
<glyph unicode="L" d="M287 55v1323q0 23 16 39.5t39 16.5h442q23 0 39.5 -16.5t16.5 -39.5v-958h698q23 0 39 -16.5t16 -38.5v-310q0 -23 -16 -39t-39 -16h-1196q-23 0 -39 16.5t-16 38.5z" />
<glyph unicode="M" d="M84 55v1323q0 23 16.5 39.5t38.5 16.5h375q57 0 88 -56l268 -491l269 491q31 56 88 56h375q23 0 39 -16.5t16 -39.5v-1323q0 -23 -16.5 -39t-38.5 -16h-371q-23 0 -39 16.5t-16 38.5v635l-150 -295q-12 -25 -36.5 -38t-49.5 -13h-139q-35 0 -57.5 18.5t-28.5 32.5 l-150 295v-635q0 -23 -16.5 -39t-38.5 -16h-371q-23 0 -39 16.5t-16 38.5z" />
<glyph unicode="N" d="M162 55v1323q0 23 16.5 39.5t38.5 16.5h332q49 0 80 -41l446 -617v602q0 23 16 39.5t39 16.5h381q23 0 39.5 -16.5t16.5 -39.5v-1323q0 -23 -16.5 -39t-39.5 -16h-329q-49 0 -82 43l-447 569v-557q0 -23 -16 -39t-39 -16h-381q-23 0 -39 16.5t-16 38.5z" />
<glyph unicode="O" d="M109 596v242q0 309 211.5 462.5t549.5 153.5t550 -153.5t212 -458.5v-250q0 -211 -102.5 -352.5t-268 -200.5t-391 -59t-391.5 59t-268 200.5t-102 356.5zM662 553q0 -84 56 -129t152.5 -45t152.5 46t56 130v324q0 84 -56 130t-152.5 46t-152.5 -45t-56 -129v-328z" />
<glyph unicode="P" d="M258 55v1323q0 23 16 39.5t39 16.5h766q291 0 461 -141.5t170 -362.5t-143.5 -351t-487.5 -130h-270v-394q0 -23 -16.5 -39t-38.5 -16h-441q-23 0 -39 16.5t-16 38.5zM811 827h260q47 0 77 29t30 80t-29 84t-78 33h-260v-226z" />
<glyph unicode="Q" d="M106 596v242q0 215 102.5 356t268.5 200.5t391.5 59.5t391 -59.5t268 -200.5t102.5 -352v-250q0 -301 -198 -457l151 -205q14 -29 -1 -46t-34 -17h-391q-66 0 -100 51l-53 68q-66 -6 -136 -6q-225 0 -391 59t-268.5 200.5t-102.5 356.5zM659 553q0 -84 56.5 -129t153 -45 t152.5 46t56 130v324q0 84 -56 130t-152.5 46t-153 -45t-56.5 -129v-328z" />
<glyph unicode="R" d="M186 55v1323q0 23 16.5 39.5t39.5 16.5h796q281 0 445 -133.5t164 -362.5q0 -279 -215 -403l251 -472q4 -9 5 -23q0 -12 -14 -26t-32 -14h-464q-61 0 -86 51l-181 406h-172v-402q0 -23 -16 -39t-39 -16h-442q-23 0 -39.5 16.5t-16.5 38.5zM739 836h256q45 0 70 29.5 t25 74.5t-24 79t-71 34h-256v-217z" />
<glyph unicode="S" d="M127 416q0 45 47 45h420q43 0 70 -27q57 -55 198 -55q195 0 195 59q0 37 -61.5 58.5t-243.5 42.5q-580 70 -580 444q0 211 186.5 341t498.5 130t504.5 -136t192.5 -288q0 -20 -13 -32.5t-36 -12.5h-440q-37 0 -64 25q-49 45 -147 45q-137 0 -137 -58q0 -31 53 -48 t213 -36q336 -39 478.5 -144t142.5 -316t-207 -342t-549 -131t-531.5 125.5t-189.5 310.5z" />
<glyph unicode="T" d="M109 1049v329q0 23 16 39.5t39 16.5h1413q23 0 39 -16.5t16 -39.5v-329q0 -23 -16.5 -39.5t-38.5 -16.5h-440v-938q0 -23 -16.5 -39t-39.5 -16h-422q-23 0 -39 16.5t-16 38.5v938h-440q-23 0 -39 16.5t-16 39.5z" />
<glyph unicode="U" d="M123 596v782q0 23 16.5 39.5t38.5 16.5h428q23 0 39.5 -16.5t16.5 -39.5v-815q0 -84 56 -129t152.5 -45t152.5 45t56 129v815q0 23 16.5 39.5t39.5 16.5h428q23 0 39 -16.5t16 -39.5v-782q0 -317 -202 -466.5t-546 -149.5t-545.5 149.5t-201.5 466.5z" />
<glyph unicode="V" d="M66 1394.5q0 12.5 13 26t32 13.5h432q37 0 60.5 -21.5t31.5 -46.5l235 -784l236 784q18 68 92 68h432q18 0 31.5 -13.5t13.5 -26t-2 -20.5l-471 -1306q-23 -68 -92 -68h-477q-68 0 -90 61l-475 1313q-2 8 -2 20.5z" />
<glyph unicode="W" d="M41 1382v7q0 18 13.5 31.5t31.5 13.5h352q41 0 66.5 -25t30.5 -61l65 -627l119 326q6 20 29.5 39.5t60.5 19.5h139q37 0 60.5 -19.5t29.5 -39.5l119 -326l66 627q4 37 29.5 61.5t66.5 24.5h352q18 0 31.5 -13.5t13.5 -31.5v-7l-178 -1304q-4 -31 -29.5 -54.5t-64.5 -23.5 h-287q-37 0 -60.5 18.5t-29.5 36.5l-188 432l-189 -432q-6 -18 -29.5 -36.5t-60.5 -18.5h-287q-39 0 -64.5 23.5t-29.5 54.5z" />
<glyph unicode="X" d="M102 43q0 16 7 25l452 692l-403 606q-6 8 -6 24.5t13 30t32 13.5h442q53 0 86 -52l160 -262l172 266q35 47 84 48h440q18 0 31.5 -13.5t13.5 -30t-6 -24.5l-428 -633l438 -665q6 -8 6 -24.5t-13 -30t-32 -13.5h-440q-55 0 -84 47l-199 305l-194 -305q-31 -47 -84 -47 h-443q-18 0 -31.5 13.5t-13.5 29.5z" />
<glyph unicode="Y" d="M76 1392.5q0 14.5 13 28t32 13.5h432q57 0 84 -48l231 -405l238 401q31 52 86 52h428q18 0 31.5 -13.5t13.5 -28t-6 -26.5l-516 -854v-457q0 -23 -16.5 -39t-39.5 -16h-436q-23 0 -39 16.5t-16 38.5v457l-514 854q-6 12 -6 26.5z" />
<glyph unicode="Z" d="M160 55v295q0 47 30 72l648 592h-580q-23 0 -39 16.5t-16 38.5v309q0 23 16.5 39.5t38.5 16.5h1229q23 0 39 -16.5t16 -39.5v-293q0 -43 -26 -67l-639 -598h653q23 0 39 -16.5t16 -38.5v-310q0 -23 -16.5 -39t-38.5 -16h-1315q-23 0 -39 16.5t-16 38.5z" />
<glyph unicode="[" d="M469 -270v1802q0 23 16 39t39 16h752q23 0 39 -16.5t16 -38.5v-244q0 -23 -16.5 -39t-38.5 -16h-406v-1204h406q23 0 39 -16.5t16 -39.5v-243q0 -23 -16.5 -39.5t-38.5 -16.5h-752q-23 0 -39 16.5t-16 39.5z" />
<glyph unicode="\" d="M291 1569.5q0 13.5 13 27t32 13.5h293q68 0 90 -62l727 -1657q4 -10 4 -23t-13.5 -26.5t-31.5 -13.5h-287q-66 0 -90 61l-733 1657q-4 10 -4 23.5z" />
<glyph unicode="]" d="M410 -27q0 23 16 39.5t39 16.5h405v1204h-405q-23 0 -39 16.5t-16 38.5v244q0 23 16 39t39 16h752q23 0 39 -16.5t16 -38.5v-1802q0 -23 -16.5 -39.5t-38.5 -16.5h-752q-23 0 -39 16.5t-16 39.5v243z" />
<glyph unicode="^" d="M473 1530q0 18 16 29l170 143q55 39 97 39h229q41 0 96 -39l170 -143q16 -10 17 -29q0 -33 -33 -33h-166q-37 0 -82 14l-117 45l-116 -45q-45 -14 -82 -14h-166q-33 0 -33 33z" />
<glyph unicode="_" d="M92 -111v279q0 23 16 39t39 16h1444q23 0 39.5 -16.5t16.5 -38.5v-279q0 -23 -16.5 -39t-39.5 -16h-1444q-23 0 -39 16.5t-16 38.5z" />
<glyph unicode="a" d="M51 39q0 12 2 18l447 1309q18 68 92 68h569q74 0 92 -68l447 -1309q2 -6 2 -18t-13.5 -25.5t-31.5 -13.5h-387q-66 0 -92 70l-52 143h-499l-52 -143q-26 -70 -92 -70h-387q-18 0 -31.5 13.5t-13.5 25.5zM731 612h291l-145 426z" />
<glyph unicode="b" d="M174 55v1323q0 23 16.5 39.5t38.5 16.5h824q291 0 429 -105.5t138 -318.5v-6q0 -98 -53.5 -168t-110.5 -88q80 -25 137.5 -108t57.5 -189q0 -451 -578 -451h-844q-23 0 -39 16.5t-16 38.5zM707 352h297q47 0 70.5 32t23.5 71v2q0 39 -25.5 67.5t-68.5 28.5h-297v-201z M707 895h274q41 0 62.5 29.5t21.5 66.5t-21.5 63.5t-62.5 26.5h-274v-186z" />
<glyph unicode="c" d="M129 596v242q0 207 104 350q197 266 658 266q186 0 335.5 -48t239.5 -126q180 -158 181 -348q0 -18 -13.5 -31.5t-31.5 -13.5h-443q-45 0 -72.5 55t-68.5 84t-132 29t-147.5 -45t-56.5 -129v-328q0 -84 56.5 -129t147.5 -45t132 28.5t68.5 84t72.5 55.5h443 q18 0 31.5 -13.5t13.5 -31.5q0 -190 -181 -348q-90 -78 -239.5 -126t-352 -48t-369.5 62t-271.5 204.5t-104.5 349.5z" />
<glyph unicode="d" d="M156 55v1323q0 23 16 39.5t39 16.5h653q225 0 391 -59.5t268.5 -201t102.5 -352.5v-209q0 -328 -221 -477q-203 -135 -541 -135h-653q-23 0 -39 16.5t-16 38.5zM688 399h186q96 0 152.5 46.5t56.5 129.5v283q0 84 -56 130t-153 46h-186v-635z" />
<glyph unicode="e" d="M184 55v1323q0 23 16.5 39.5t39.5 16.5h1273q23 0 39.5 -16.5t16.5 -39.5v-288q0 -23 -16.5 -39.5t-39.5 -16.5h-796v-129h684q23 0 39 -16.5t16 -38.5v-266q0 -23 -16.5 -39.5t-38.5 -16.5h-684v-129h817q23 0 39 -16t16 -39v-289q0 -23 -16.5 -39t-38.5 -16h-1294 q-23 0 -39.5 16.5t-16.5 38.5z" />
<glyph unicode="f" d="M205 55v1323q0 23 16 39.5t39 16.5h1303q23 0 39 -16.5t16 -39.5v-311q0 -23 -16.5 -39t-38.5 -16h-805v-131h672q23 0 39 -16.5t16 -39.5v-309q0 -23 -16.5 -39t-38.5 -16h-672v-406q0 -23 -16.5 -39t-39.5 -16h-442q-23 0 -39 16.5t-16 38.5z" />
<glyph unicode="g" d="M119 596v242q0 158 60.5 278.5t168.5 194.5q213 143 543 143q164 0 300 -38t217 -94t138 -122q100 -115 101 -203q0 -18 -13.5 -31.5t-31.5 -13.5h-463q-41 0 -60 23q-63 80 -172.5 80t-172 -43t-62.5 -111v-348q0 -82 61.5 -128t173 -46t172 44t62.5 103h-127 q-23 0 -39.5 16.5t-16.5 39.5v227q0 23 16.5 39t39.5 16h594q23 0 39 -16.5t16 -38.5v-217q0 -311 -212 -461.5t-560 -150.5t-560 150.5t-212 465.5z" />
<glyph unicode="h" d="M133 55v1323q0 23 16.5 39.5t38.5 16.5h422q23 0 39.5 -16.5t16.5 -39.5v-420h409v420q0 23 16 39.5t39 16.5h422q23 0 39.5 -16.5t16.5 -39.5v-1323q0 -23 -16.5 -39t-39.5 -16h-422q-23 0 -39 16.5t-16 38.5v437h-409v-437q0 -23 -16.5 -39t-39.5 -16h-422 q-23 0 -39 15.5t-16 39.5z" />
<glyph unicode="i" d="M166 55v310q0 23 16.5 39t38.5 16h375v594h-375q-23 0 -39 16.5t-16 38.5v309q0 23 16.5 39.5t38.5 16.5h1299q23 0 39 -16.5t16 -39.5v-309q0 -23 -16 -39t-39 -16h-371v-594h371q23 0 39 -16.5t16 -38.5v-310q0 -23 -16.5 -39t-38.5 -16h-1299q-23 0 -39 16.5t-16 38.5 z" />
<glyph unicode="j" d="M55 502q0 18 13.5 31.5t31.5 13.5h463q37 0 51 -45q39 -123 197 -123q96 0 152.5 45t56.5 129v461h-748q-23 0 -39 16.5t-16 38.5v309q0 23 16.5 39.5t38.5 16.5h1246q23 0 39 -16.5t16 -39.5v-782q0 -311 -205 -463.5t-547 -152.5q-186 0 -337.5 48t-241.5 126 q-186 162 -187 348z" />
<glyph unicode="k" d="M188 55v1323q0 23 16.5 39.5t39.5 16.5h422q23 0 39 -16.5t16 -39.5v-385l323 406q31 35 76 35h494q18 0 31.5 -13.5t13.5 -31t-10 -29.5l-486 -592l553 -696q8 -12 8 -28.5t-13 -30t-32 -13.5h-528q-47 0 -74 33l-356 440v-418q0 -23 -16.5 -39t-38.5 -16h-422 q-23 0 -39.5 16.5t-16.5 38.5z" />
<glyph unicode="l" d="M287 55v1323q0 23 16 39.5t39 16.5h442q23 0 39.5 -16.5t16.5 -39.5v-958h698q23 0 39 -16.5t16 -38.5v-310q0 -23 -16 -39t-39 -16h-1196q-23 0 -39 16.5t-16 38.5z" />
<glyph unicode="m" d="M84 55v1323q0 23 16.5 39.5t38.5 16.5h375q57 0 88 -56l268 -491l269 491q31 56 88 56h375q23 0 39 -16.5t16 -39.5v-1323q0 -23 -16.5 -39t-38.5 -16h-371q-23 0 -39 16.5t-16 38.5v635l-150 -295q-12 -25 -36.5 -38t-49.5 -13h-139q-35 0 -57.5 18.5t-28.5 32.5 l-150 295v-635q0 -23 -16.5 -39t-38.5 -16h-371q-23 0 -39 16.5t-16 38.5z" />
<glyph unicode="n" d="M162 55v1323q0 23 16.5 39.5t38.5 16.5h332q49 0 80 -41l446 -617v602q0 23 16 39.5t39 16.5h381q23 0 39.5 -16.5t16.5 -39.5v-1323q0 -23 -16.5 -39t-39.5 -16h-329q-49 0 -82 43l-447 569v-557q0 -23 -16 -39t-39 -16h-381q-23 0 -39 16.5t-16 38.5z" />
<glyph unicode="o" d="M109 596v242q0 309 211.5 462.5t549.5 153.5t550 -153.5t212 -458.5v-250q0 -211 -102.5 -352.5t-268 -200.5t-391 -59t-391.5 59t-268 200.5t-102 356.5zM662 553q0 -84 56 -129t152.5 -45t152.5 46t56 130v324q0 84 -56 130t-152.5 46t-152.5 -45t-56 -129v-328z" />
<glyph unicode="p" d="M258 55v1323q0 23 16 39.5t39 16.5h766q291 0 461 -141.5t170 -362.5t-143.5 -351t-487.5 -130h-270v-394q0 -23 -16.5 -39t-38.5 -16h-441q-23 0 -39 16.5t-16 38.5zM811 827h260q47 0 77 29t30 80t-29 84t-78 33h-260v-226z" />
<glyph unicode="q" d="M106 596v242q0 215 102.5 356t268.5 200.5t391.5 59.5t391 -59.5t268 -200.5t102.5 -352v-250q0 -301 -198 -457l151 -205q14 -29 -1 -46t-34 -17h-391q-66 0 -100 51l-53 68q-66 -6 -136 -6q-225 0 -391 59t-268.5 200.5t-102.5 356.5zM659 553q0 -84 56.5 -129t153 -45 t152.5 46t56 130v324q0 84 -56 130t-152.5 46t-153 -45t-56.5 -129v-328z" />
<glyph unicode="r" d="M186 55v1323q0 23 16.5 39.5t39.5 16.5h796q281 0 445 -133.5t164 -362.5q0 -279 -215 -403l251 -472q4 -9 5 -23q0 -12 -14 -26t-32 -14h-464q-61 0 -86 51l-181 406h-172v-402q0 -23 -16 -39t-39 -16h-442q-23 0 -39.5 16.5t-16.5 38.5zM739 836h256q45 0 70 29.5 t25 74.5t-24 79t-71 34h-256v-217z" />
<glyph unicode="s" d="M127 416q0 45 47 45h420q43 0 70 -27q57 -55 198 -55q195 0 195 59q0 37 -61.5 58.5t-243.5 42.5q-580 70 -580 444q0 211 186.5 341t498.5 130t504.5 -136t192.5 -288q0 -20 -13 -32.5t-36 -12.5h-440q-37 0 -64 25q-49 45 -147 45q-137 0 -137 -58q0 -31 53 -48 t213 -36q336 -39 478.5 -144t142.5 -316t-207 -342t-549 -131t-531.5 125.5t-189.5 310.5z" />
<glyph unicode="t" d="M109 1049v329q0 23 16 39.5t39 16.5h1413q23 0 39 -16.5t16 -39.5v-329q0 -23 -16.5 -39.5t-38.5 -16.5h-440v-938q0 -23 -16.5 -39t-39.5 -16h-422q-23 0 -39 16.5t-16 38.5v938h-440q-23 0 -39 16.5t-16 39.5z" />
<glyph unicode="u" d="M123 596v782q0 23 16.5 39.5t38.5 16.5h428q23 0 39.5 -16.5t16.5 -39.5v-815q0 -84 56 -129t152.5 -45t152.5 45t56 129v815q0 23 16.5 39.5t39.5 16.5h428q23 0 39 -16.5t16 -39.5v-782q0 -317 -202 -466.5t-546 -149.5t-545.5 149.5t-201.5 466.5z" />
<glyph unicode="v" d="M66 1394.5q0 12.5 13 26t32 13.5h432q37 0 60.5 -21.5t31.5 -46.5l235 -784l236 784q18 68 92 68h432q18 0 31.5 -13.5t13.5 -26t-2 -20.5l-471 -1306q-23 -68 -92 -68h-477q-68 0 -90 61l-475 1313q-2 8 -2 20.5z" />
<glyph unicode="w" d="M41 1382v7q0 18 13.5 31.5t31.5 13.5h352q41 0 66.5 -25t30.5 -61l65 -627l119 326q6 20 29.5 39.5t60.5 19.5h139q37 0 60.5 -19.5t29.5 -39.5l119 -326l66 627q4 37 29.5 61.5t66.5 24.5h352q18 0 31.5 -13.5t13.5 -31.5v-7l-178 -1304q-4 -31 -29.5 -54.5t-64.5 -23.5 h-287q-37 0 -60.5 18.5t-29.5 36.5l-188 432l-189 -432q-6 -18 -29.5 -36.5t-60.5 -18.5h-287q-39 0 -64.5 23.5t-29.5 54.5z" />
<glyph unicode="x" d="M102 43q0 16 7 25l452 692l-403 606q-6 8 -6 24.5t13 30t32 13.5h442q53 0 86 -52l160 -262l172 266q35 47 84 48h440q18 0 31.5 -13.5t13.5 -30t-6 -24.5l-428 -633l438 -665q6 -8 6 -24.5t-13 -30t-32 -13.5h-440q-55 0 -84 47l-199 305l-194 -305q-31 -47 -84 -47 h-443q-18 0 -31.5 13.5t-13.5 29.5z" />
<glyph unicode="y" d="M76 1392.5q0 14.5 13 28t32 13.5h432q57 0 84 -48l231 -405l238 401q31 52 86 52h428q18 0 31.5 -13.5t13.5 -28t-6 -26.5l-516 -854v-457q0 -23 -16.5 -39t-39.5 -16h-436q-23 0 -39 16.5t-16 38.5v457l-514 854q-6 12 -6 26.5z" />
<glyph unicode="z" d="M160 55v295q0 47 30 72l648 592h-580q-23 0 -39 16.5t-16 38.5v309q0 23 16.5 39.5t38.5 16.5h1229q23 0 39 -16.5t16 -39.5v-293q0 -43 -26 -67l-639 -598h653q23 0 39 -16.5t16 -38.5v-310q0 -23 -16.5 -39t-38.5 -16h-1315q-23 0 -39 16.5t-16 38.5z" />
<glyph unicode="{" d="M434 559v148q0 59 60 86l34 14q90 37 90 199.5t52.5 275.5t144.5 178q178 129 449 129q18 0 31.5 -13t13.5 -32v-301q0 -18 -12.5 -30.5t-26.5 -14.5q-121 -14 -171 -59t-50 -171t-48.5 -220.5t-121.5 -114.5q72 -20 121 -119.5t49 -220.5t50 -166t171 -59 q14 -2 26.5 -14.5t12.5 -30.5v-302q0 -18 -13.5 -31.5t-31.5 -13.5q-270 0 -449 129q-92 66 -144.5 178.5t-52.5 275.5t-90 200l-34 14q-60 27 -60 86z" />
<glyph unicode="|" d="M668 -250v1936q0 23 16 39t39 16h295q23 0 39 -16.5t16 -38.5v-1936q0 -23 -16.5 -39t-38.5 -16h-295q-23 0 -39 16.5t-16 38.5z" />
<glyph unicode="}" d="M432 23q0 18 12.5 30.5t26.5 14.5q121 14 171 59t50 166t49.5 220t120.5 120q-74 20 -122 114.5t-48 220.5t-50 171t-171 59q-14 2 -26.5 14.5t-12.5 30.5v301q0 18 13.5 31.5t31.5 13.5q270 0 449 -129q92 -66 144 -178.5t52 -275t90 -199.5l35 -14q60 -27 60 -86v-148 q0 -59 -60 -86l-35 -14q-90 -37 -90 -200t-52 -275.5t-144 -178.5q-178 -129 -449 -129q-18 0 -31.5 13.5t-13.5 31.5v302z" />
<glyph unicode="~" d="M369 449v200q0 68 70.5 116t174 48t262 -43t255 -43t155.5 53q20 16 44 17.5t33 -16t9 -58.5v-201q0 -68 -70.5 -116t-174 -48t-262 43t-255 43t-155.5 -53q-20 -16 -44 -17t-33 16.5t-9 58.5z" />
<glyph unicode="&#xa0;" />
<glyph unicode="&#xa1;" d="M608 -244v770q0 27 15.5 42.5t40.5 15.5h413q23 0 39.5 -15.5t16.5 -36.5l2 -780q0 -27 -16.5 -43t-39.5 -16h-415q-25 0 -40.5 17.5t-15.5 45.5zM608 725v346q0 23 16.5 39t39.5 16h413q23 0 39.5 -16t16.5 -39v-346q0 -23 -16.5 -39t-39.5 -16h-413q-23 0 -39.5 16 t-16.5 39z" />
<glyph unicode="&#xa2;" d="M215 485v95q0 182 103.5 305t283.5 172v137q0 23 16.5 39t38.5 16h347q23 0 39 -16t16 -39v-137q193 -49 302 -167t109 -202q0 -23 -16 -39t-39 -16h-440q-39 0 -60 41q-29 61 -75 61q-82 0 -82 -131v-143q0 -70 18.5 -100.5t57 -30.5t53 13t30 51t58.5 38h440 q23 0 39 -16.5t16 -38.5q0 -78 -107.5 -199t-303.5 -172v-156q0 -23 -16 -39t-39 -16h-347q-23 0 -39 16.5t-16 38.5v158q-180 47 -283.5 171t-103.5 306z" />
<glyph unicode="&#xa3;" d="M102 37q0 121 58.5 221t161.5 156q0 37 -9 98h-153q-23 0 -39.5 16.5t-16.5 38.5v230q0 23 16.5 39t39.5 16h71q-2 18 -2 61q0 276 181.5 409.5t497 133.5t516 -132t200.5 -372q0 -18 -13.5 -31.5t-31.5 -13.5h-418q-59 0 -84 60q-37 90 -164 90q-70 0 -110.5 -37 t-40.5 -93.5t2 -74.5h231q23 0 39.5 -16.5t16.5 -38.5v-230q0 -23 -16.5 -39t-39.5 -16h-180q0 -68 -4 -104q100 -35 224 -35t162 17.5t61.5 47t46.5 29.5h288q39 0 39 -39q0 -207 -138 -327.5t-353 -121t-418 69.5q-70 23 -136.5 23t-99.5 -54q-10 -18 -30 -18h-316 q-16 0 -27.5 11.5t-11.5 25.5z" />
<glyph unicode="&#xa5;" d="M76 1392.5q0 14.5 13 28t32 13.5h432q57 0 84 -48l231 -405l238 401q31 51 86 52h428q18 0 31.5 -13.5t13.5 -28t-6 -26.5l-451 -745h160q23 0 39 -16.5t16 -39.5v-237q0 -23 -16 -39.5t-39 -16.5h-225v-217q0 -23 -16.5 -39t-39.5 -16h-436q-23 0 -39 16.5t-16 38.5v217 h-221q-23 0 -39.5 16.5t-16.5 39.5v237q0 23 16.5 39.5t39.5 16.5h155l-448 745q-6 12 -6 26.5z" />
<glyph unicode="&#xa7;" d="M223 612q0 168 152 277q-37 68 -37 147q0 182 147.5 300t404.5 118t418.5 -104.5t161.5 -212.5q0 -47 -49 -47h-368q-29 0 -65 28.5t-87 28.5t-51 -55q0 -23 10 -39.5t67.5 -39t164.5 -40.5q235 -53 331.5 -149.5t96.5 -265.5t-152 -275q37 -70 37 -148 q0 -182 -147.5 -300t-404.5 -118t-419 104.5t-162 213.5q0 47 50 47h368q29 0 65 -28.5t87 -28.5t51 55q0 23 -10.5 39t-67.5 38.5t-164 41.5q-236 53 -332 149t-96 264zM684 633q0 -43 55.5 -65.5t160 -47t117.5 -24.5t27.5 12t14.5 31q0 43 -56.5 65.5t-161 46 t-117.5 23.5t-26.5 -11.5t-13.5 -29.5z" />
<glyph unicode="&#xa9;" d="M133 717q0 305 216 521t521.5 216t521.5 -216t216 -521t-216 -521t-521.5 -216t-521.5 216t-216 521zM326 716.5q0 -233.5 156.5 -396t388 -162.5t388 162.5t156.5 396t-156.5 396.5t-388 163t-388 -163t-156.5 -396.5zM489 657v119q0 152 105.5 228.5t279 76.5 t271.5 -79.5t98 -178.5q0 -8 -7 -15t-15 -7h-220q-25 0 -34 26q-16 29 -37 43.5t-62 14.5q-104 0 -104 -86v-164q0 -86 104 -86q41 0 61.5 14.5t37.5 42.5q10 27 34 27h220q8 0 15 -7.5t7 -15.5q0 -98 -98 -178t-271.5 -80t-279 77t-105.5 228z" />
<glyph unicode="&#xaa;" d="M553 1055q0 139 252 182l110 16q0 33 -5 43.5t-25.5 10.5t-39 -16.5t-34.5 -16.5h-199q-20 0 -20 24q0 51 78 103.5t217 52.5q301 0 301 -227v-299q0 -10 -8.5 -19.5t-20.5 -9.5h-203q-12 0 -21 9.5t-9 19.5v28q-45 -68 -145.5 -67.5t-164 47.5t-63.5 119zM809 1072 q0 -28 41 -28q70 0 70 82l-62 -16q-49 -10 -49 -38z" />
<glyph unicode="&#xab;" d="M301 627v94q0 33 29 57l436 414q12 10 29.5 10t30 -12t12.5 -31v-315q0 -18 -6.5 -27.5t-30.5 -32.5l-117 -110l117 -111q35 -41 37 -59v-316q0 -18 -12.5 -30.5t-30 -12.5t-29.5 11l-436 413q-29 25 -29 58zM860 627v94q0 33 29 57l436 414q12 10 29.5 10t30 -12 t12.5 -31v-315q0 -18 -6.5 -27.5t-30.5 -32.5l-117 -110l117 -111q35 -41 37 -59v-316q0 -18 -12.5 -30.5t-30 -12.5t-29.5 11l-436 413q-29 25 -29 58z" />
<glyph unicode="&#xac;" d="M332 573v238q0 23 16.5 39t38.5 16h932q23 0 39 -16t16 -39v-455q0 -23 -16.5 -39t-38.5 -16h-238q-23 0 -39 16t-16 39v162h-639q-23 0 -39 16.5t-16 38.5z" />
<glyph unicode="&#xad;" d="M424 535v290q0 23 16 39.5t39 16.5h785q23 0 39 -16.5t16 -39.5v-290q0 -23 -16.5 -39.5t-38.5 -16.5h-785q-23 0 -39 16.5t-16 39.5z" />
<glyph unicode="&#xae;" d="M133 717q0 305 216 521t521.5 216t521.5 -216t216 -521t-216 -521t-521.5 -216t-521.5 216t-216 521zM326 716.5q0 -233.5 156.5 -396t388 -162.5t388 162.5t156.5 396t-156.5 396.5t-388 163t-388 -163t-156.5 -396.5zM510 389v655q0 27 29 27h393q139 0 220 -65.5 t81 -190.5t-107 -188l125 -234l2 -8q0 -8 -7 -16.5t-15 -8.5h-230q-31 0 -43 27l-90 201h-86v-199q0 -29 -26 -29h-217q-12 0 -20.5 9.5t-8.5 19.5zM782 776h127q47 0 47 53.5t-47 53.5h-127v-107z" />
<glyph unicode="&#xb0;" d="M430 1073q0 164 119 272.5t323.5 108.5t321.5 -108.5t117 -272.5t-117 -270.5t-322.5 -106.5t-323.5 106.5t-118 270.5zM768 1073q0 -158 104 -158q100 0 100.5 159t-100.5 159q-49 0 -76.5 -43t-27.5 -117z" />
<glyph unicode="&#xb1;" d="M319 55v135q0 23 16.5 39.5t39.5 16.5h991q23 0 39 -16.5t16 -39.5v-135q0 -23 -16 -39t-39 -16h-991q-23 0 -39.5 16.5t-16.5 38.5zM319 731v285q0 23 16.5 39t39.5 16h284v268q0 23 16.5 39.5t39.5 16.5h311q23 0 39 -16.5t16 -39.5v-268h285q23 0 39 -16.5t16 -38.5 v-285q0 -23 -16 -39t-39 -16h-285v-279q0 -23 -16 -39t-39 -16h-311q-23 0 -39.5 16t-16.5 39v279h-284q-23 0 -39.5 16.5t-16.5 38.5z" />
<glyph unicode="&#xb5;" d="M262 -352v1362q0 23 16.5 39t38.5 16h402q23 0 39 -16.5t16 -38.5v-551q0 -113 102.5 -113t102.5 113v551q0 23 16.5 39t38.5 16h389q23 0 39.5 -16.5t16.5 -38.5v-955q0 -23 -16.5 -39t-39.5 -16h-358q-23 0 -39 16.5t-16 38.5v68q-70 -102 -236 -123v-352 q0 -23 -16.5 -39.5t-38.5 -16.5h-402q-23 0 -39 16.5t-16 39.5z" />
<glyph unicode="&#xb6;" d="M346 1029q0 167 115.5 286t279.5 119h598q23 0 39.5 -16.5t16.5 -39.5v-1528q0 -23 -16.5 -39t-39.5 -16h-131q-23 0 -39 16.5t-16 38.5v1342h-162v-1342q0 -23 -16.5 -39t-38.5 -16h-131q-23 0 -39 16.5t-16 38.5v777q-168 0 -286 117.5t-118 284.5z" />
<glyph unicode="&#xb7;" d="M555 889q0 131 92 223t223 92t223.5 -92t92.5 -223t-92.5 -223.5t-223.5 -92.5t-223 92.5t-92 223.5z" />
<glyph unicode="&#xba;" d="M545 1135v73q0 119 89 182.5t236.5 63.5t236.5 -63.5t89 -182.5v-73q0 -121 -85 -183.5t-240.5 -62.5t-240.5 62.5t-85 183.5zM823 1126q0 -41 10.5 -55t36.5 -14q48 -1 48 69v91q0 70 -47.5 69.5t-47.5 -69.5v-91z" />
<glyph unicode="&#xbb;" d="M344 188v316q0 18 6 27.5t31 31.5l117 111l-117 110q-35 41 -37 60v315q0 18 12.5 30.5t29.5 12.5t30 -10l436 -414q29 -24 29 -57v-94q0 -33 -29 -58l-436 -413q-12 -10 -29.5 -10.5t-30 12t-12.5 30.5zM903 188v316q0 18 6 27.5t31 31.5l117 111l-117 110 q-35 41 -37 60v315q0 18 12.5 30.5t30 12.5t29.5 -10l436 -414q29 -24 29 -57v-94q0 -33 -29 -58l-436 -413q-12 -10 -29.5 -10.5t-30 12t-12.5 30.5z" />
<glyph unicode="&#xbf;" d="M201 59q0 82 42 155t94 117t116.5 99t88 90t29.5 41q20 25 50 25h479q14 0 26.5 -11.5t12.5 -23.5t-2 -19q-20 -63 -80 -124.5t-119 -100.5q-154 -100 -154 -155q0 -76 90 -76q51 0 78 19.5t32 44t25.5 44t57.5 19.5h422q23 0 37 -18.5t14 -43.5v-2q0 -168 -164 -309 q-82 -70 -221 -113t-318.5 -43t-313.5 41t-199 105q-123 119 -123 239zM598 727v346q0 23 16.5 39t38.5 16h416q23 0 39 -16t16 -39v-346q0 -23 -16 -39t-39 -16h-416q-23 0 -39 16.5t-16 38.5z" />
<glyph unicode="&#xe0;" d="M51 39q0 12 2 18l447 1309q18 68 92 68h569q74 0 92 -68l447 -1309q2 -6 2 -18t-13.5 -25.5t-31.5 -13.5h-387q-66 0 -92 70l-52 143h-499l-52 -143q-26 -70 -92 -70h-387q-18 0 -31.5 13.5t-13.5 25.5zM473 1700q0 41 39 41h324q47 -4 75 -39l119 -146q10 -10 10 -26 q0 -33 -32 -33h-273q-39 0 -57 14l-195 164q-10 10 -10 25zM731 612h291l-145 426z" />
<glyph unicode="&#xe1;" d="M51 39q0 12 2 18l447 1309q18 68 92 68h569q74 0 92 -68l447 -1309q2 -6 2 -18t-13.5 -25.5t-31.5 -13.5h-387q-66 0 -92 70l-52 143h-499l-52 -143q-27 -70 -92 -70h-387q-18 0 -31.5 13.5t-13.5 25.5zM705 1530q0 16 10 26l119 146q29 35 75 39h324q39 0 39 -41 q0 -14 -10 -25l-195 -164q-18 -14 -57 -14h-273q-33 0 -32 33zM731 612h291l-145 426z" />
<glyph unicode="&#xe2;" d="M51 39q0 12 2 18l447 1309q18 68 92 68h569q74 0 92 -68l447 -1309q2 -6 2 -18t-13.5 -25.5t-31.5 -13.5h-387q-66 0 -92 70l-52 143h-499l-52 -143q-27 -70 -92 -70h-387q-18 0 -31.5 13.5t-13.5 25.5zM477 1530q0 18 17 29l170 143q55 39 96 39h229q41 0 96 -39 l170 -143q16 -10 17 -29q0 -33 -33 -33h-166q-37 0 -82 14l-117 45l-116 -45q-45 -14 -82 -14h-166q-33 0 -33 33zM731 612h291l-145 426z" />
<glyph unicode="&#xe3;" d="M51 39q0 12 2 18l447 1309q18 68 92 68h569q74 0 92 -68l447 -1309q2 -6 2 -18t-13.5 -25.5t-31.5 -13.5h-387q-66 0 -92 70l-52 143h-499l-52 -143q-27 -70 -92 -70h-387q-18 0 -31.5 13.5t-13.5 25.5zM463 1547.5q0 19.5 13 50t41 67.5t87.5 61.5t127 24.5t135 -24.5 t97 -24.5t54 19.5t47.5 19.5h172q39 0 39 -39q0 -61 -67 -134t-212 -73q-57 0 -124.5 24.5t-98.5 24.5t-54.5 -19.5t-45.5 -19.5h-172q-16 0 -27.5 11.5t-11.5 31zM731 612h291l-145 426z" />
<glyph unicode="&#xe4;" d="M51 39q0 12 2 18l447 1309q18 68 92 68h569q74 0 92 -68l447 -1309q2 -6 2 -18t-13.5 -25.5t-31.5 -13.5h-387q-66 0 -92 70l-52 143h-499l-52 -143q-27 -70 -92 -70h-387q-18 0 -31.5 13.5t-13.5 25.5zM455 1544v150q0 20 13.5 33.5t33.5 13.5h237q20 0 33.5 -13.5 t13.5 -33.5v-150q0 -20 -13 -33.5t-34 -13.5h-237q-20 0 -33.5 13.5t-13.5 33.5zM731 612h291l-145 426zM969 1544v150q0 20 13.5 33.5t33.5 13.5h237q20 0 33.5 -13.5t13.5 -33.5v-150q0 -20 -13 -33.5t-34 -13.5h-237q-20 0 -33.5 13.5t-13.5 33.5z" />
<glyph unicode="&#xe5;" d="M51 39q0 12 2 18l447 1309q18 68 92 68h569q74 0 92 -68l447 -1309q2 -6 2 -18t-13.5 -25.5t-31.5 -13.5h-387q-66 0 -92 70l-52 143h-499l-52 -143q-27 -70 -92 -70h-387q-18 0 -31.5 13.5t-13.5 25.5zM662 1611.5q0 63.5 59 101.5t147 38t147.5 -38t59.5 -101.5 t-59.5 -101t-147.5 -37.5t-147 37.5t-59 101zM731 612h291l-145 426zM805 1612q0 -41 62.5 -41t62.5 41t-62.5 41t-62.5 -41z" />
<glyph unicode="&#xe6;" d="M18 39q0 12 2 18l467 1309q23 68 93 68h1067q23 0 39 -16.5t16 -39.5v-288q0 -23 -16.5 -39.5t-38.5 -16.5h-271v-129h221q23 0 39.5 -16.5t16.5 -38.5v-266q0 -23 -16.5 -39.5t-39.5 -16.5h-221v-129h291q23 0 39 -16t16 -39v-289q0 -23 -16 -39t-39 -16h-747 q-23 0 -39.5 16.5t-16.5 38.5v158h-291l-51 -143q-26 -70 -92 -70h-367q-18 0 -31.5 13.5t-13.5 25.5zM678 612h186v426h-41z" />
<glyph unicode="&#xe7;" d="M129 596v242q0 207 104 350q197 266 658 266q186 0 335.5 -48t239.5 -126q180 -158 181 -348q0 -18 -13.5 -31.5t-31.5 -13.5h-443q-45 0 -72.5 55t-68.5 84t-132 29t-147.5 -45t-56.5 -129v-328q0 -84 56.5 -129t147.5 -45t132 28.5t68.5 84t72.5 55.5h443 q18 0 31.5 -13.5t13.5 -31.5q0 -180 -168 -338q-84 -76 -222.5 -126t-312.5 -56l-12 -35q18 8 88 8t122 -33t52 -97.5t-72.5 -98t-170 -33.5t-175.5 26.5t-78 75.5q0 23 27 23h125q23 0 45.5 -13.5t71.5 -13.5t49 39q0 35 -58 35q-29 0 -55 -9.5t-43 -9.5h-90q-31 0 -31 27 q0 6 4 18l31 95q-291 25 -468 178t-177 432z" />
<glyph unicode="&#xe8;" d="M205 55v1323q0 23 16.5 39.5t38.5 16.5h1274q23 0 39 -16.5t16 -39.5v-288q0 -23 -16.5 -39.5t-38.5 -16.5h-797v-129h684q23 0 39.5 -16.5t16.5 -38.5v-266q0 -23 -16.5 -39.5t-39.5 -16.5h-684v-129h817q23 0 39.5 -16t16.5 -39v-289q0 -23 -16.5 -39t-39.5 -16h-1294 q-23 0 -39 16.5t-16 38.5zM561 1700q0 41 39 41h324q47 -4 75 -39l119 -146q10 -10 10 -26q0 -33 -32 -33h-273q-39 0 -57 14l-195 164q-10 10 -10 25z" />
<glyph unicode="&#xe9;" d="M205 55v1323q0 23 16.5 39.5t38.5 16.5h1274q23 0 39 -16.5t16 -39.5v-288q0 -23 -16.5 -39.5t-38.5 -16.5h-797v-129h684q23 0 39.5 -16.5t16.5 -38.5v-266q0 -23 -16.5 -39.5t-39.5 -16.5h-684v-129h817q23 0 39.5 -16t16.5 -39v-289q0 -23 -16.5 -39t-39.5 -16h-1294 q-23 0 -39 16.5t-16 38.5zM702 1538q0 16 11 27l118 145q29 35 76 39h324q39 0 39 -41q0 -14 -10 -25l-195 -163q-18 -14 -57 -15h-273q-33 0 -33 33z" />
<glyph unicode="&#xea;" d="M205 55v1323q0 23 16.5 39.5t38.5 16.5h1274q23 0 39 -16.5t16 -39.5v-288q0 -23 -16.5 -39.5t-38.5 -16.5h-797v-129h684q23 0 39.5 -16.5t16.5 -38.5v-266q0 -23 -16.5 -39.5t-39.5 -16.5h-684v-129h817q23 0 39.5 -16t16.5 -39v-289q0 -23 -16.5 -39t-39.5 -16h-1294 q-23 0 -39 16.5t-16 38.5zM471 1530q0 18 16 29l170 143q55 39 97 39h229q41 0 96 -39l170 -143q16 -10 17 -29q0 -33 -33 -33h-166q-37 0 -82 14l-117 45l-116 -45q-45 -14 -82 -14h-166q-33 0 -33 33z" />
<glyph unicode="&#xeb;" d="M205 55v1323q0 23 16.5 39.5t38.5 16.5h1274q23 0 39 -16.5t16 -39.5v-288q0 -23 -16.5 -39.5t-38.5 -16.5h-797v-129h684q23 0 39.5 -16.5t16.5 -38.5v-266q0 -23 -16.5 -39.5t-39.5 -16.5h-684v-129h817q23 0 39.5 -16t16.5 -39v-289q0 -23 -16.5 -39t-39.5 -16h-1294 q-23 0 -39 16.5t-16 38.5zM463 1544v150q0 20 13.5 33.5t33.5 13.5h238q20 0 33.5 -13.5t13.5 -33.5v-150q0 -20 -13.5 -33.5t-33.5 -13.5h-238q-20 0 -33.5 13.5t-13.5 33.5zM977 1544v150q0 20 13.5 33.5t33.5 13.5h238q20 0 33.5 -13.5t13.5 -33.5v-150 q0 -20 -13.5 -33.5t-33.5 -13.5h-238q-20 0 -33.5 13.5t-13.5 33.5z" />
<glyph unicode="&#xec;" d="M166 55v310q0 23 16.5 39t38.5 16h375v594h-375q-23 0 -39 16.5t-16 38.5v309q0 23 16.5 39.5t38.5 16.5h1299q23 0 39 -16.5t16 -39.5v-309q0 -23 -16 -39t-39 -16h-371v-594h371q23 0 39 -16.5t16 -38.5v-310q0 -23 -16.5 -39t-38.5 -16h-1299q-23 0 -39 16.5t-16 38.5 zM532 1700q0 41 39 41h324q47 -4 76 -39l119 -146q10 -10 10 -26q0 -33 -33 -33h-272q-39 0 -58 14l-194 164q-10 10 -11 25z" />
<glyph unicode="&#xed;" d="M166 55v310q0 23 16.5 39t38.5 16h375v594h-375q-23 0 -39 16.5t-16 38.5v309q0 23 16.5 39.5t38.5 16.5h1299q23 0 39 -16.5t16 -39.5v-309q0 -23 -16 -39t-39 -16h-371v-594h371q23 0 39 -16.5t16 -38.5v-310q0 -23 -16.5 -39t-38.5 -16h-1299q-23 0 -39 16.5t-16 38.5 zM705 1530q0 16 10 26l119 146q29 35 75 39h324q39 0 39 -41q0 -14 -10 -25l-195 -164q-18 -14 -57 -14h-273q-33 0 -32 33z" />
<glyph unicode="&#xee;" d="M166 55v310q0 23 16.5 39t38.5 16h375v594h-375q-23 0 -39 16.5t-16 38.5v309q0 23 16.5 39.5t38.5 16.5h1299q23 0 39 -16.5t16 -39.5v-309q0 -23 -16 -39t-39 -16h-371v-594h371q23 0 39 -16.5t16 -38.5v-310q0 -23 -16.5 -39t-38.5 -16h-1299q-23 0 -39 16.5t-16 38.5 zM473 1530q0 18 16 29l170 143q55 39 97 39h229q41 0 96 -39l170 -143q16 -10 17 -29q0 -33 -33 -33h-166q-37 0 -82 14l-117 45l-116 -45q-45 -14 -82 -14h-166q-33 0 -33 33z" />
<glyph unicode="&#xef;" d="M166 55v310q0 23 16.5 39t38.5 16h375v594h-375q-23 0 -39 16.5t-16 38.5v309q0 23 16.5 39.5t38.5 16.5h1299q23 0 39 -16.5t16 -39.5v-309q0 -23 -16 -39t-39 -16h-371v-594h371q23 0 39 -16.5t16 -38.5v-310q0 -23 -16.5 -39t-38.5 -16h-1299q-23 0 -39 16.5t-16 38.5 zM446 1544v150q0 20 14 33.5t34 13.5h237q20 0 33.5 -13.5t13.5 -33.5v-150q0 -20 -13 -33.5t-34 -13.5h-237q-20 0 -34 13.5t-14 33.5zM961 1544v150q0 20 13.5 33.5t33.5 13.5h237q20 0 33.5 -13.5t13.5 -33.5v-150q0 -20 -13 -33.5t-34 -13.5h-237q-20 0 -33.5 13.5 t-13.5 33.5z" />
<glyph unicode="&#xf0;" d="M0 616v207q0 23 16.5 39.5t38.5 16.5h101v499q0 23 16 39.5t39 16.5h653q225 0 391 -59.5t268.5 -201t102.5 -352.5v-209q0 -328 -221 -477q-203 -135 -541 -135h-653q-23 0 -39 16.5t-16 38.5v506h-101q-23 0 -39 16.5t-16 38.5zM688 399h186q96 0 152.5 46.5 t56.5 129.5v283q0 84 -56 130t-153 46h-186v-155h174q23 0 39.5 -16.5t16.5 -39.5v-207q0 -23 -16.5 -39t-39.5 -16h-174v-162z" />
<glyph unicode="&#xf1;" d="M162 55v1323q0 23 16.5 39.5t38.5 16.5h332q49 0 80 -41l446 -617v602q0 23 16 39.5t39 16.5h381q23 0 39.5 -16.5t16.5 -39.5v-1323q0 -23 -16.5 -39t-39.5 -16h-329q-49 0 -82 43l-447 569v-557q0 -23 -16 -39t-39 -16h-381q-23 0 -39 16.5t-16 38.5zM469 1549.5 q0 19.5 13.5 51t41 68.5t87 62.5t127 25.5t135 -24.5t109.5 -24.5t55.5 21.5t33.5 21.5h172q39 0 39 -39q0 -51 -55 -123q-29 -39 -87.5 -63.5t-126 -24.5t-135 24.5t-108.5 24.5t-59 -24q-10 -18 -31 -19h-172q-16 0 -27.5 11.5t-11.5 31z" />
<glyph unicode="&#xf2;" d="M109 596v242q0 309 211.5 462.5t549.5 153.5t550 -153.5t212 -458.5v-250q0 -211 -102.5 -352.5t-268 -200.5t-391 -59t-391.5 59t-268 200.5t-102 356.5zM502 1700q0 41 39 41h323q47 -4 76 -39l119 -146q10 -10 10 -26q0 -33 -33 -33h-272q-39 0 -57 14l-195 164 q-10 10 -10 25zM662 553q0 -84 56 -129t152.5 -45t152.5 46t56 130v324q0 84 -56 130t-152.5 46t-152.5 -45t-56 -129v-328z" />
<glyph unicode="&#xf3;" d="M109 596v242q0 309 211.5 462.5t549.5 153.5t550 -153.5t212 -458.5v-250q0 -211 -102.5 -352.5t-268 -200.5t-391 -59t-391.5 59t-268 200.5t-102 356.5zM662 553q0 -84 56 -129t152.5 -45t152.5 46t56 130v324q0 84 -56 130t-152.5 46t-152.5 -45t-56 -129v-328z M664 1530q0 16 10 26l119 146q29 35 75 39h324q39 0 39 -41q0 -14 -10 -25l-195 -164q-18 -14 -57 -14h-273q-33 0 -32 33z" />
<glyph unicode="&#xf4;" d="M109 596v242q0 309 211.5 462.5t549.5 153.5t550 -153.5t212 -458.5v-250q0 -211 -102.5 -352.5t-268 -200.5t-391 -59t-391.5 59t-268 200.5t-102 356.5zM475 1530q0 18 17 29l170 143q55 39 96 39h229q41 0 96 -39l170 -143q16 -10 17 -29q0 -33 -33 -33h-166 q-37 0 -82 14l-117 45l-116 -45q-45 -14 -82 -14h-166q-33 0 -33 33zM662 553q0 -84 56 -129t152.5 -45t152.5 46t56 130v324q0 84 -56 130t-152.5 46t-152.5 -45t-56 -129v-328z" />
<glyph unicode="&#xf5;" d="M109 596v242q0 309 211.5 462.5t549.5 153.5t550 -153.5t212 -458.5v-250q0 -211 -102.5 -352.5t-268 -200.5t-391 -59t-391.5 59t-268 200.5t-102 356.5zM477 1549.5q0 19.5 13.5 51t41 68.5t87 62.5t127 25.5t135 -24.5t109.5 -24.5t55.5 21.5t33.5 21.5h172 q39 0 39 -39q0 -51 -55 -123q-29 -39 -87 -63.5t-126 -24.5t-135.5 24.5t-108.5 24.5t-59 -24q-10 -18 -31 -19h-172q-16 0 -27.5 11.5t-11.5 31zM662 553q0 -84 56 -129t152.5 -45t152.5 46t56 130v324q0 84 -56 130t-152.5 46t-152.5 -45t-56 -129v-328z" />
<glyph unicode="&#xf6;" d="M109 596v242q0 309 211.5 462.5t549.5 153.5t550 -153.5t212 -458.5v-250q0 -211 -102.5 -352.5t-268 -200.5t-391 -59t-391.5 59t-268 200.5t-102 356.5zM449 1552v150q0 20 13.5 33.5t33.5 13.5h237q20 0 33.5 -13.5t13.5 -33.5v-150q0 -20 -13 -33.5t-34 -13.5h-237 q-20 0 -33.5 13.5t-13.5 33.5zM662 553q0 -84 56 -129t152.5 -45t152.5 46t56 130v324q0 84 -56 130t-152.5 46t-152.5 -45t-56 -129v-328zM963 1552v150q0 20 13.5 33.5t33.5 13.5h237q20 0 33.5 -13.5t13.5 -33.5v-150q0 -20 -13 -33.5t-34 -13.5h-237q-20 0 -33.5 13.5 t-13.5 33.5z" />
<glyph unicode="&#xf7;" d="M289 565v250q0 23 16 39t39 16h1051q23 0 39 -16t16 -39v-250q0 -23 -16.5 -39t-38.5 -16h-1051q-23 0 -39 16.5t-16 38.5zM684 133v234q0 23 16 39t39 16h254q23 0 39.5 -16.5t16.5 -38.5v-234q0 -23 -16.5 -39t-39.5 -16h-254q-23 0 -39 16.5t-16 38.5zM684 1014v233 q0 23 16 39.5t39 16.5h254q23 0 39.5 -16.5t16.5 -39.5v-233q0 -23 -16.5 -39.5t-39.5 -16.5h-254q-23 0 -39 16.5t-16 39.5z" />
<glyph unicode="&#xf8;" d="M0 274v222q0 51 45 67l64 25v252q0 309 211.5 462.5t549.5 153.5q233 0 413.5 -75.5t270.5 -227.5l121 47q16 6 28.5 6t25 -12t12.5 -31v-221q0 -51 -45 -68l-64 -24v-258q0 -211 -102.5 -352.5t-268 -200.5t-391.5 -59q-518 0 -688 303l-116 -45q-16 -6 -28.5 -6.5 t-25 12t-12.5 30.5zM662 803l399 158q-47 96 -191 96q-96 0 -152 -45t-56 -129v-80zM678 475q42 -96 192 -96q96 0 152.5 46t56.5 130v78z" />
<glyph unicode="&#xf9;" d="M123 596v782q0 23 16.5 39.5t38.5 16.5h428q23 0 39.5 -16.5t16.5 -39.5v-815q0 -84 56 -129t152.5 -45t152.5 45t56 129v815q0 23 16.5 39.5t39.5 16.5h428q23 0 39 -16.5t16 -39.5v-782q0 -317 -202 -466.5t-546 -149.5t-545.5 149.5t-201.5 466.5zM492 1700 q0 41 38 41h324q47 -4 76 -39l119 -146q10 -10 10 -26q0 -33 -33 -33h-272q-39 0 -58 14l-194 164q-10 10 -10 25z" />
<glyph unicode="&#xfa;" d="M123 596v782q0 23 16.5 39.5t38.5 16.5h428q23 0 39.5 -16.5t16.5 -39.5v-815q0 -84 56 -129t152.5 -45t152.5 45t56 129v815q0 23 16.5 39.5t39.5 16.5h428q23 0 39 -16.5t16 -39.5v-782q0 -317 -202 -466.5t-546 -149.5t-545.5 149.5t-201.5 466.5zM684 1530 q0 16 10 26l119 146q29 35 76 39h323q39 0 39 -41q0 -14 -10 -25l-194 -164q-18 -14 -58 -14h-272q-33 0 -33 33z" />
<glyph unicode="&#xfb;" d="M123 596v782q0 23 16.5 39.5t38.5 16.5h428q23 0 39.5 -16.5t16.5 -39.5v-815q0 -84 56 -129t152.5 -45t152.5 45t56 129v815q0 23 16.5 39.5t39.5 16.5h428q23 0 39 -16.5t16 -39.5v-782q0 -317 -202 -466.5t-546 -149.5t-545.5 149.5t-201.5 466.5zM473 1530 q0 18 16 29l170 143q55 39 97 39h229q41 0 96 -39l170 -143q16 -10 17 -29q0 -33 -33 -33h-166q-37 0 -82 14l-117 45l-116 -45q-45 -14 -82 -14h-166q-33 0 -33 33z" />
<glyph unicode="&#xfc;" d="M123 596v782q0 23 16.5 39.5t38.5 16.5h428q23 0 39.5 -16.5t16.5 -39.5v-815q0 -84 56 -129t152.5 -45t152.5 45t56 129v815q0 23 16.5 39.5t39.5 16.5h428q23 0 39 -16.5t16 -39.5v-782q0 -317 -202 -466.5t-546 -149.5t-545.5 149.5t-201.5 466.5zM446 1552v150 q0 20 14 33.5t34 13.5h237q20 0 33.5 -13.5t13.5 -33.5v-150q0 -20 -13 -33.5t-34 -13.5h-237q-20 0 -34 13.5t-14 33.5zM961 1552v150q0 20 13.5 33.5t33.5 13.5h237q20 0 33.5 -13.5t13.5 -33.5v-150q0 -20 -13 -33.5t-34 -13.5h-237q-20 0 -33.5 13.5t-13.5 33.5z" />
<glyph unicode="&#xfd;" d="M76 1392.5q0 14.5 13 28t32 13.5h432q57 0 84 -48l231 -405l238 401q31 52 86 52h428q18 0 31.5 -13.5t13.5 -28t-6 -26.5l-516 -854v-457q0 -23 -16.5 -39t-39.5 -16h-436q-23 0 -39 16.5t-16 38.5v457l-514 854q-6 12 -6 26.5zM668 1530q0 16 10 26l119 146 q29 35 75 39h324q39 0 39 -41q0 -14 -10 -25l-195 -164q-18 -14 -57 -14h-273q-33 0 -32 33z" />
<glyph unicode="&#xfe;" d="M166 55v1325q0 23 16 39.5t39 16.5h441q23 0 39 -16.5t16 -39.5v-131h270q291 0 461 -141t170 -362.5t-143.5 -351.5t-487.5 -130h-270v-209q0 -23 -16.5 -39t-38.5 -16h-441q-23 0 -39 16.5t-16 38.5zM719 643h260q49 0 77.5 28.5t28.5 80t-28.5 84t-77.5 32.5h-260 v-225z" />
<glyph unicode="&#xff;" d="M76 1392.5q0 14.5 13 28t32 13.5h432q57 0 84 -48l231 -405l238 401q31 52 86 52h428q18 0 31.5 -13.5t13.5 -28t-6 -26.5l-516 -854v-457q0 -23 -16.5 -39t-39.5 -16h-436q-23 0 -39 16.5t-16 38.5v457l-514 854q-6 12 -6 26.5zM446 1554v150q0 20 14 33.5t34 13.5h237 q20 0 33.5 -13.5t13.5 -33.5v-150q0 -20 -13 -33.5t-34 -13.5h-237q-20 0 -34 13.5t-14 33.5zM961 1554v150q0 20 13.5 33.5t33.5 13.5h237q20 0 33.5 -13.5t13.5 -33.5v-150q0 -20 -13 -33.5t-34 -13.5h-237q-20 0 -33.5 13.5t-13.5 33.5z" />
<glyph unicode="&#x153;" d="M111 614v203q0 315 185 466t515 151h762q23 0 39 -16.5t16 -39.5v-288q0 -23 -16.5 -39.5t-38.5 -16.5h-270v-129h221q23 0 39 -16.5t16 -38.5v-266q0 -23 -16.5 -39.5t-38.5 -16.5h-221v-129h290q23 0 39.5 -16t16.5 -39v-289q0 -23 -16.5 -39t-39.5 -16h-782 q-700 0 -700 614zM602 571q0 -82 56.5 -127t152.5 -45v635q-96 0 -152.5 -45t-56.5 -129v-289z" />
<glyph unicode="&#x192;" d="M336 53q0 23 16.5 39.5t38.5 16.5h80q70 0 103.5 37.5t33.5 127.5v392h-141q-23 0 -39 16t-16 39v268q0 23 16 39t39 16h141v35q0 260 158 355q137 82 375 82h211q23 0 39 -16.5t16 -39.5v-268q0 -23 -16.5 -39t-38.5 -16h-166q-88 0 -88 -68v-25h231q23 0 39 -16t16 -39 v-268q0 -23 -16 -39t-39 -16h-231v-414q0 -559 -606 -559h-101q-23 0 -39 16t-16 39v305z" />
<glyph unicode="&#x401;" d="M184 55v1323q0 23 16.5 39.5t39.5 16.5h1273q23 0 39.5 -16.5t16.5 -39.5v-288q0 -23 -16.5 -39.5t-39.5 -16.5h-796v-129h684q23 0 39 -16.5t16 -38.5v-266q0 -23 -16.5 -39.5t-38.5 -16.5h-684v-129h817q23 0 39 -16t16 -39v-289q0 -23 -16.5 -39t-38.5 -16h-1294 q-23 0 -39.5 16.5t-16.5 38.5zM463 1544v150q0 20 13.5 33.5t33.5 13.5h238q20 0 33.5 -13.5t13.5 -33.5v-150q0 -20 -13.5 -33.5t-33.5 -13.5h-238q-20 0 -33.5 13.5t-13.5 33.5zM977 1544v150q0 20 13.5 33.5t33.5 13.5h238q20 0 33.5 -13.5t13.5 -33.5v-150 q0 -20 -13.5 -33.5t-33.5 -13.5h-238q-20 0 -33.5 13.5t-13.5 33.5z" />
<glyph unicode="&#x402;" d="M61 1061v325q0 20 13.5 34t34.5 14h1151q20 0 33.5 -13.5t13.5 -34.5v-325q0 -20 -13.5 -33.5t-33.5 -13.5h-349v-113h136q322 0 464 -134t142 -413v-94q0 -319 -138.5 -505.5t-367.5 -186.5h-143q-23 0 -39.5 16.5t-16.5 38.5v238q0 23 16.5 39t39.5 16l45 2 q74 4 117.5 53.5t43.5 141.5v227q0 133 -163 133h-136v-418q0 -23 -16 -39t-39 -16h-379q-23 0 -39 16.5t-16 38.5v959h-313q-20 0 -34 13t-14 34z" />
<glyph unicode="&#x403;" d="M395 55v1323q0 23 16.5 39.5t39.5 16.5h1112q23 0 39 -16.5t16 -39.5v-329q0 -23 -16 -39.5t-39 -16.5h-637l2 -938q0 -23 -16.5 -39t-39.5 -16h-421q-23 0 -39.5 16.5t-16.5 38.5zM770 1530q0 16 10 26l119 146q29 35 76 39h323q39 0 39 -41q0 -14 -10 -25l-194 -164 q-18 -14 -58 -14h-272q-33 0 -33 33z" />
<glyph unicode="&#x404;" d="M129 596v242q0 207 104 350q197 266 658 266q336 0 546 -165t210 -357q0 -18 -13.5 -31.5t-31.5 -13.5h-402q-39 0 -72 53q-70 115 -237 115q-90 0 -146.5 -41t-62.5 -117h336q23 0 39 -16.5t16 -38.5v-252q0 -23 -16 -39t-39 -16h-336q8 -74 63.5 -115t145.5 -41 q168 0 237 115q33 53 72 53h402q18 0 31.5 -13.5t13.5 -31.5q0 -193 -210 -357.5t-546 -164.5q-461 0 -658 266q-104 143 -104 350z" />
<glyph unicode="&#x405;" d="M127 416q0 45 47 45h420q43 0 70 -27q57 -55 198 -55q195 0 195 59q0 37 -61.5 58.5t-243.5 42.5q-580 70 -580 444q0 211 186.5 341t498.5 130t504.5 -136t192.5 -288q0 -20 -13 -32.5t-36 -12.5h-440q-37 0 -64 25q-49 45 -147 45q-137 0 -137 -58q0 -31 53 -48 t213 -36q336 -39 478.5 -144t142.5 -316t-207 -342t-549 -131t-531.5 125.5t-189.5 310.5z" />
<glyph unicode="&#x406;" d="M166 55v310q0 23 16.5 39t38.5 16h375v594h-375q-23 0 -39 16.5t-16 38.5v309q0 23 16.5 39.5t38.5 16.5h1299q23 0 39 -16.5t16 -39.5v-309q0 -23 -16 -39t-39 -16h-371v-594h371q23 0 39 -16.5t16 -38.5v-310q0 -23 -16.5 -39t-38.5 -16h-1299q-23 0 -39 16.5t-16 38.5 z" />
<glyph unicode="&#x407;" d="M166 55v310q0 23 16.5 39t38.5 16h375v594h-375q-23 0 -39 16.5t-16 38.5v309q0 23 16.5 39.5t38.5 16.5h1299q23 0 39 -16.5t16 -39.5v-309q0 -23 -16 -39t-39 -16h-371v-594h371q23 0 39 -16.5t16 -38.5v-310q0 -23 -16.5 -39t-38.5 -16h-1299q-23 0 -39 16.5t-16 38.5 zM446 1544v150q0 20 14 33.5t34 13.5h237q20 0 33.5 -13.5t13.5 -33.5v-150q0 -20 -13 -33.5t-34 -13.5h-237q-20 0 -34 13.5t-14 33.5zM961 1544v150q0 20 13.5 33.5t33.5 13.5h237q20 0 33.5 -13.5t13.5 -33.5v-150q0 -20 -13 -33.5t-34 -13.5h-237q-20 0 -33.5 13.5 t-13.5 33.5z" />
<glyph unicode="&#x408;" d="M55 502q0 18 13.5 31.5t31.5 13.5h463q37 0 51 -45q39 -123 197 -123q96 0 152.5 45t56.5 129v461h-748q-23 0 -39 16.5t-16 38.5v309q0 23 16.5 39.5t38.5 16.5h1246q23 0 39 -16.5t16 -39.5v-782q0 -311 -205 -463.5t-547 -152.5q-186 0 -337.5 48t-241.5 126 q-186 162 -187 348z" />
<glyph unicode="&#x409;" d="M4 35v327q0 23 16.5 39.5t38.5 16.5q72 0 101.5 39t29.5 118v803q0 23 16.5 39.5t39.5 16.5h844q25 0 41 -16.5t16 -39.5v-401h49q246 0 395.5 -132t149.5 -348t-149.5 -356.5t-393.5 -140.5h-407q-25 0 -40.5 17.5t-15.5 37.5v938h-94v-411q0 -602 -580 -602 q-23 0 -40 16t-17 39zM1147 383h49q66 0 100.5 30.5t34.5 83t-36 80t-99 27.5h-49v-221z" />
<glyph unicode="&#x40a;" d="M68 55v1323q0 23 16 39.5t39 16.5h299q23 0 39 -16.5t16 -39.5v-440h258v440q0 23 16.5 39.5t39.5 16.5h299q23 0 39 -16.5t16 -39.5v-401h51q246 0 395.5 -132t149.5 -348t-149.5 -356.5t-393.5 -140.5h-407q-23 0 -39.5 16.5t-16.5 38.5v457h-258v-457q0 -23 -16.5 -39 t-38.5 -16h-299q-23 0 -39 15.5t-16 39.5zM1145 383h51q66 0 100.5 30.5t34.5 83t-35.5 80t-99.5 27.5h-51v-221z" />
<glyph unicode="&#x40b;" d="M61 1061v325q0 20 13.5 34t34.5 14h1151q20 0 33.5 -13.5t13.5 -34.5v-325q0 -20 -13.5 -33.5t-33.5 -13.5h-349v-133h152q299 0 456.5 -138.5t157.5 -408.5v-279q0 -23 -16 -39t-39 -16h-381q-23 0 -39 16t-16 39v264q0 133 -123 134h-152v-398q0 -23 -16 -39t-39 -16 h-379q-23 0 -39 16.5t-16 38.5v959h-313q-20 0 -34 13t-14 34z" />
<glyph unicode="&#x40c;" d="M168 55v1323q0 23 16.5 39.5t38.5 16.5h422q23 0 39 -16.5t16 -39.5v-385l324 406q31 35 76 35h493q18 0 31.5 -13.5t13.5 -31t-10 -29.5l-485 -592l553 -696q8 -12 8 -28.5t-13.5 -30t-31.5 -13.5h-529q-47 0 -73 33l-357 440v-418q0 -23 -16 -39t-39 -16h-422 q-23 0 -39 16.5t-16 38.5zM709 1530q0 16 10 26l119 146q29 35 75 39h324q39 0 39 -41q0 -14 -10 -25l-195 -164q-18 -14 -57 -14h-273q-33 0 -32 33z" />
<glyph unicode="&#x40e;" d="M174 55v328q0 23 16.5 39t38.5 16h289q115 0 127 17l-444 915q-2 6 -2 14q8 49 51 50h448q43 0 66 -50l229 -536l201 536q20 49 70 50h424q18 0 32.5 -13.5t14.5 -30t-2 -20.5l-308 -719q-88 -209 -137 -301t-141 -189.5t-219 -129t-328 -31.5h-371q-23 0 -39 16.5 t-16 38.5zM629 1724q0 27 39 27h202q31 0 39 -27q12 -51 78 -51t88 51q14 27 39 27h203q39 0 39 -27q0 -96 -94.5 -162.5t-269.5 -66.5t-269 66.5t-94 162.5z" />
<glyph unicode="&#x40f;" d="M215 55v1323q0 25 16.5 40.5t38.5 15.5h381q23 0 39.5 -16.5t16.5 -39.5v-938h327v938q0 23 16.5 39.5t39.5 16.5h370q23 0 39.5 -16.5t16.5 -39.5v-1323q0 -23 -16.5 -39t-39.5 -16h-370v-199q0 -23 -16.5 -39t-39.5 -16h-329q-23 0 -39.5 16.5t-16.5 38.5v199h-379 q-23 0 -39 16.5t-16 38.5z" />
<glyph unicode="&#x410;" d="M51 39q0 12 2 18l447 1309q18 68 92 68h569q74 0 92 -68l447 -1309q2 -6 2 -18t-13.5 -25.5t-31.5 -13.5h-387q-66 0 -92 70l-52 143h-499l-52 -143q-26 -70 -92 -70h-387q-18 0 -31.5 13.5t-13.5 25.5zM731 612h291l-145 426z" />
<glyph unicode="&#x411;" d="M174 55v1323q0 23 16.5 39.5t38.5 16.5h1205q23 0 39 -16.5t16 -39.5v-286q0 -23 -16.5 -39.5t-38.5 -16.5h-727v-141h368q274 0 425 -118t151 -326.5t-151.5 -329.5t-426.5 -121h-844q-23 0 -39 16.5t-16 38.5zM707 352h297q47 0 70.5 32t23.5 71v2q0 39 -25.5 67.5 t-68.5 28.5h-297v-201z" />
<glyph unicode="&#x412;" d="M174 55v1323q0 23 16.5 39.5t38.5 16.5h824q291 0 429 -105.5t138 -318.5v-6q0 -98 -53.5 -168t-110.5 -88q80 -25 137.5 -108t57.5 -189q0 -451 -578 -451h-844q-23 0 -39 16.5t-16 38.5zM707 352h297q47 0 70.5 32t23.5 71v2q0 39 -25.5 67.5t-68.5 28.5h-297v-201z M707 895h274q41 0 62.5 29.5t21.5 66.5t-21.5 63.5t-62.5 26.5h-274v-186z" />
<glyph unicode="&#x413;" d="M395 55v1323q0 23 16.5 39.5t39.5 16.5h1112q23 0 39 -16.5t16 -39.5v-329q0 -23 -16.5 -39.5t-38.5 -16.5h-637l2 -938q0 -23 -16.5 -39t-39.5 -16h-421q-23 0 -39.5 16.5t-16.5 38.5z" />
<glyph unicode="&#x414;" d="M80 -199v584q0 23 16.5 39t38.5 16h33q49 0 95 43t46 115v780q0 23 16.5 39.5t39.5 16.5h1081q23 0 39 -16.5t16 -39.5v-938h105q23 0 39 -16t16 -39v-584q0 -23 -16.5 -39t-38.5 -16h-332q-23 0 -39 16.5t-16 38.5v199h-699v-199q0 -23 -16.5 -39t-38.5 -16h-330 q-23 0 -39 15.5t-16 39.5zM782 440h228v574h-209v-418q0 -117 -19 -156z" />
<glyph unicode="&#x415;" d="M184 55v1323q0 23 16.5 39.5t39.5 16.5h1273q23 0 39.5 -16.5t16.5 -39.5v-288q0 -23 -16.5 -39.5t-39.5 -16.5h-796v-129h684q23 0 39 -16.5t16 -38.5v-266q0 -23 -16.5 -39.5t-38.5 -16.5h-684v-129h817q23 0 39 -16t16 -39v-289q0 -23 -16.5 -39t-38.5 -16h-1294 q-23 0 -39.5 16.5t-16.5 38.5z" />
<glyph unicode="&#x416;" d="M-27 41q0 2 9 27l290 680l-256 618q-8 25 -8 29q0 39 37 39h365q41 0 57 -45l170 -437v426q0 23 16.5 39.5t38.5 16.5h352q23 0 39.5 -16.5t16.5 -39.5v-426l170 437q16 45 57 45h365q37 0 37 -39q0 -4 -9 -29l-256 -618l291 -680q8 -25 8 -27q0 -41 -39 -41h-360 q-53 0 -74 41l-190 473v-459q0 -23 -16.5 -39t-39.5 -16h-352q-23 0 -39 16.5t-16 38.5v459l-191 -473q-20 -41 -73 -41h-361q-39 0 -39 41z" />
<glyph unicode="&#x417;" d="M100 406q0 20 13.5 32.5t31.5 12.5h449q23 0 45.5 -21.5t32.5 -30.5q33 -23 119 -22q174 0 174 88q0 70 -158 70h-272q-23 0 -39.5 16t-16.5 39v252q0 23 16.5 39t39.5 16h272q158 0 158 70q0 43 -43 65.5t-106.5 22.5t-97.5 -7.5t-45 -15.5t-34 -29.5t-45 -21.5h-449 q-18 0 -31.5 12.5t-13.5 32.5q0 139 156 274q78 68 221.5 111t329.5 43q313 0 512 -123t199 -332q0 -109 -70 -186.5t-133 -95.5q61 -16 132 -98.5t71 -188.5q0 -209 -198 -329.5t-513 -120.5q-420 0 -608 204q-98 109 -99 222z" />
<glyph unicode="&#x418;" d="M162 55v1323q0 23 16 39.5t39 16.5h381q23 0 39 -16.5t16 -39.5v-602l447 617q31 41 80 41h331q23 0 39.5 -16.5t16.5 -39.5v-1323q0 -23 -16.5 -39t-39.5 -16h-381q-23 0 -39 16.5t-16 38.5v557l-446 -569q-33 -43 -82 -43h-330q-23 0 -39 16.5t-16 38.5z" />
<glyph unicode="&#x419;" d="M162 55v1323q0 23 16 39.5t39 16.5h381q23 0 39 -16.5t16 -39.5v-602l447 617q31 41 80 41h331q23 0 39.5 -16.5t16.5 -39.5v-1323q0 -23 -16.5 -39t-39.5 -16h-381q-23 0 -39 16.5t-16 38.5v557l-446 -569q-33 -43 -82 -43h-330q-23 0 -39 16.5t-16 38.5zM520 1724 q0 27 39 27h203q31 0 39 -27q12 -51 77.5 -51t88.5 51q12 27 39 27h202q39 0 39 -27q0 -96 -94 -162.5t-269 -66.5t-269.5 66.5t-94.5 162.5z" />
<glyph unicode="&#x41a;" d="M188 55v1323q0 23 16.5 39.5t39.5 16.5h422q23 0 39 -16.5t16 -39.5v-385l323 406q31 35 76 35h494q18 0 31.5 -13.5t13.5 -31t-10 -29.5l-486 -592l553 -696q8 -12 8 -28.5t-13 -30t-32 -13.5h-528q-47 0 -74 33l-356 440v-418q0 -23 -16.5 -39t-38.5 -16h-422 q-23 0 -39.5 16.5t-16.5 38.5z" />
<glyph unicode="&#x41b;" d="M76 35v327q0 23 16.5 39.5t38.5 16.5q86 0 119 38t33 119v803q0 23 16 39.5t39 16.5h1163q23 0 39 -16.5t16 -39.5v-1323q0 -23 -16 -39t-39 -16h-381q-23 0 -39 16.5t-16 38.5v938h-291v-411q0 -303 -169 -452.5t-472 -149.5q-23 0 -40 16t-17 39z" />
<glyph unicode="&#x41c;" d="M84 55v1323q0 23 16.5 39.5t38.5 16.5h375q57 0 88 -56l268 -491l269 491q31 56 88 56h375q23 0 39 -16.5t16 -39.5v-1323q0 -23 -16.5 -39t-38.5 -16h-371q-23 0 -39 16.5t-16 38.5v635l-150 -295q-12 -25 -36.5 -38t-49.5 -13h-139q-35 0 -57.5 18.5t-28.5 32.5 l-150 295v-635q0 -23 -16.5 -39t-38.5 -16h-371q-23 0 -39 16.5t-16 38.5z" />
<glyph unicode="&#x41d;" d="M133 55v1323q0 23 16.5 39.5t38.5 16.5h422q23 0 39.5 -16.5t16.5 -39.5v-420h409v420q0 23 16 39.5t39 16.5h422q23 0 39.5 -16.5t16.5 -39.5v-1323q0 -23 -16.5 -39t-39.5 -16h-422q-23 0 -39 16.5t-16 38.5v437h-409v-437q0 -23 -16.5 -39t-39.5 -16h-422 q-23 0 -39 15.5t-16 39.5z" />
<glyph unicode="&#x41e;" d="M109 596v242q0 309 211.5 462.5t549.5 153.5t550 -153.5t212 -458.5v-250q0 -211 -102.5 -352.5t-268 -200.5t-391 -59t-391.5 59t-268 200.5t-102 356.5zM662 553q0 -84 56 -129t152.5 -45t152.5 46t56 130v324q0 84 -56 130t-152.5 46t-152.5 -45t-56 -129v-328z" />
<glyph unicode="&#x41f;" d="M154 55v1323q0 23 16 39.5t39 16.5h1323q23 0 39 -16.5t16 -39.5v-1323q0 -23 -16.5 -39t-38.5 -16h-402q-23 0 -39 16.5t-16 38.5v936h-409v-936q0 -23 -16.5 -39t-39.5 -16h-401q-23 0 -39 15.5t-16 39.5z" />
<glyph unicode="&#x420;" d="M258 55v1323q0 23 16 39.5t39 16.5h766q291 0 461 -141.5t170 -362.5t-143.5 -351t-487.5 -130h-270v-394q0 -23 -16.5 -39t-38.5 -16h-441q-23 0 -39 16.5t-16 38.5zM811 827h260q47 0 77 29t30 80t-29 84t-78 33h-260v-226z" />
<glyph unicode="&#x421;" d="M129 596v242q0 207 104 350q197 266 658 266q186 0 335.5 -48t239.5 -126q180 -158 181 -348q0 -18 -13.5 -31.5t-31.5 -13.5h-443q-45 0 -72.5 55t-68.5 84t-132 29t-147.5 -45t-56.5 -129v-328q0 -84 56.5 -129t147.5 -45t132 28.5t68.5 84t72.5 55.5h443 q18 0 31.5 -13.5t13.5 -31.5q0 -190 -181 -348q-90 -78 -239.5 -126t-352 -48t-369.5 62t-271.5 204.5t-104.5 349.5z" />
<glyph unicode="&#x422;" d="M109 1049v329q0 23 16 39.5t39 16.5h1413q23 0 39 -16.5t16 -39.5v-329q0 -23 -16.5 -39.5t-38.5 -16.5h-440v-938q0 -23 -16.5 -39t-39.5 -16h-422q-23 0 -39 16.5t-16 38.5v938h-440q-23 0 -39 16.5t-16 39.5z" />
<glyph unicode="&#x423;" d="M174 55v328q0 23 16.5 39t38.5 16h289q115 0 127 17l-444 915q-2 6 -2 14q8 49 51 50h448q43 0 66 -50l229 -536l201 536q20 49 70 50h424q18 0 32.5 -13.5t14.5 -30t-2 -20.5l-308 -719q-88 -209 -137 -301t-141 -189.5t-219 -129t-328 -31.5h-371q-23 0 -39 16.5 t-16 38.5z" />
<glyph unicode="&#x424;" d="M78 725q0 233 158.5 377.5t418.5 187.5v109q0 23 16.5 39t39.5 16h319q23 0 39 -16.5t16 -38.5v-109q267 -41 427.5 -186.5t160.5 -384t-159.5 -389t-428.5 -193.5v-102q0 -23 -16 -39t-39 -16h-319q-23 0 -39.5 16t-16.5 39v104q-262 45 -419.5 199t-157.5 387z M518.5 717q-0.5 -139 147.5 -191v377q-147 -47 -147.5 -186zM1075 526q147 51 147.5 188.5t-147.5 188.5v-377z" />
<glyph unicode="&#x425;" d="M102 43q0 16 7 25l452 692l-403 606q-6 8 -6 24.5t13 30t32 13.5h442q53 0 86 -52l160 -262l172 266q35 47 84 48h440q18 0 31.5 -13.5t13.5 -30t-6 -24.5l-428 -633l438 -665q6 -8 6 -24.5t-13 -30t-32 -13.5h-440q-55 0 -84 47l-199 305l-194 -305q-31 -47 -84 -47 h-443q-18 0 -31.5 13.5t-13.5 29.5z" />
<glyph unicode="&#x426;" d="M215 55v1323q0 25 16.5 40.5t38.5 15.5h422q23 0 39.5 -16.5t16.5 -39.5v-938h225v938q0 23 16.5 39.5t38.5 16.5h402q23 0 39 -16.5t16 -39.5v-938h78q23 0 39 -16t16 -39v-584q0 -23 -16.5 -39t-38.5 -16h-330q-23 0 -39 16.5t-16 38.5v199h-908q-23 0 -39 16.5 t-16 38.5z" />
<glyph unicode="&#x427;" d="M31 1077l2 301q0 23 16.5 39.5t38.5 16.5h420q23 0 39 -16.5t16 -39.5v-309q0 -94 51.5 -137t126.5 -43h234v489q0 23 16.5 39.5t38.5 16.5h422q23 0 39 -16.5t16 -39.5v-1323q0 -23 -16 -39t-39 -16h-422q-23 0 -39 16.5t-16 38.5v367h-240q-434 0 -612 287 q-92 152 -92 368z" />
<glyph unicode="&#x428;" d="M84 55v1323q0 23 16.5 39.5t38.5 16.5h328q23 0 39 -16.5t16 -39.5v-938h146v938q0 23 16 39.5t39 16.5h291q23 0 39 -16.5t16 -39.5v-938h148v938q0 23 16 39.5t39 16.5h330q23 0 39 -15.5t16 -40.5v-1323q0 -23 -16 -39t-39 -16h-1463q-23 0 -39 16.5t-16 38.5z" />
<glyph unicode="&#x429;" d="M55 55v1323q0 25 16.5 40.5t39.5 15.5h327q23 0 39.5 -16.5t16.5 -39.5v-938h135v938q0 25 16.5 40.5t38.5 15.5h311q23 0 39.5 -16.5t16.5 -39.5v-938h139v938q0 23 16.5 39.5t38.5 16.5h309q23 0 39.5 -16.5t16.5 -39.5v-938h76q23 0 39 -16t16 -39v-584 q0 -23 -16.5 -39t-38.5 -16h-330q-23 0 -39.5 16.5t-16.5 38.5v199h-1189q-23 0 -39.5 16.5t-16.5 38.5z" />
<glyph unicode="&#x42a;" d="M72 1092v286q0 23 16 39.5t39 16.5h668q23 0 39 -16.5t16 -39.5v-401h235q287 0 467.5 -127t180.5 -358.5t-179.5 -361.5t-466.5 -130h-714q-23 0 -39.5 16.5t-16.5 38.5v981h-190q-23 0 -39 16.5t-16 39.5zM850 383h235q66 0 101 30.5t35 84.5q0 106 -136 106h-235v-221 z" />
<glyph unicode="&#x42b;" d="M35 55v1323q0 23 16.5 39.5t38.5 16.5h361q23 0 39 -16.5t16 -39.5v-401h92q274 0 430 -130t156 -349t-157 -358.5t-427 -139.5h-510q-23 0 -39 16.5t-16 38.5zM506 383h92q66 0 100.5 30.5t34.5 84.5q0 106 -135 106h-92v-221zM1241 55v1323q0 23 16.5 39.5t38.5 16.5 h357q23 0 39 -16.5t16 -39.5v-1323q0 -23 -16 -39t-39 -16h-357q-23 0 -39 16.5t-16 38.5z" />
<glyph unicode="&#x42c;" d="M287 55v1323q0 23 16 39.5t39 16.5h422q23 0 39 -16.5t16 -39.5v-401h236q287 0 467 -127t180 -358.5t-179.5 -361.5t-465.5 -130h-715q-23 0 -39 16.5t-16 38.5zM819 383h236q66 0 100.5 30.5t34.5 84.5q0 106 -135 106h-236v-221z" />
<glyph unicode="&#x42d;" d="M94 502q0 18 13.5 31.5t31.5 13.5h402q39 0 71 -53q70 -115 238 -115q90 0 145.5 41t61.5 115h-334q-23 0 -39 16t-16 39v252q0 23 16 39t39 16h334q-6 76 -61.5 117t-145.5 41q-168 0 -238 -115q-33 -53 -71 -53h-402q-18 0 -31.5 13t-13.5 32q0 193 210 357.5 t546 164.5q461 0 657 -266q104 -143 105 -350v-242q0 -207 -105 -350q-197 -266 -657 -266q-336 0 -546 164.5t-210 357.5z" />
<glyph unicode="&#x42e;" d="M14 55v1323q0 23 16.5 39.5t39.5 16.5h329q23 0 39.5 -16.5t16.5 -39.5v-430h145q35 258 171 382t392 124q313 0 445.5 -184.5t132.5 -555t-132 -552.5t-446 -182q-254 0 -390 130t-173 388h-145v-443q0 -23 -16.5 -39t-39.5 -16h-329q-23 0 -39.5 15.5t-16.5 39.5z M1057 557q0 -178 106.5 -178t106.5 180v315q0 180 -106.5 180.5t-106.5 -177.5v-320z" />
<glyph unicode="&#x42f;" d="M53 41q0 14 4 22l252 472q-215 124 -215 403q0 229 164 362.5t444 133.5h797q23 0 39 -16.5t16 -39.5v-1323q0 -23 -16 -39t-39 -16h-442q-23 0 -39.5 16.5t-16.5 38.5v402h-172l-180 -406q-25 -51 -86 -51h-465q-18 0 -31.5 13.5t-13.5 27.5zM651 940q0 -45 24.5 -74.5 t69.5 -29.5h256v217h-256q-47 0 -70.5 -34t-23.5 -79z" />
<glyph unicode="&#x430;" d="M51 39q0 12 2 18l447 1309q18 68 92 68h569q74 0 92 -68l447 -1309q2 -6 2 -18t-13.5 -25.5t-31.5 -13.5h-387q-66 0 -92 70l-52 143h-499l-52 -143q-26 -70 -92 -70h-387q-18 0 -31.5 13.5t-13.5 25.5zM731 612h291l-145 426z" />
<glyph unicode="&#x431;" d="M174 55v1323q0 23 16.5 39.5t38.5 16.5h1205q23 0 39 -16.5t16 -39.5v-286q0 -23 -16.5 -39.5t-38.5 -16.5h-727v-141h368q274 0 425 -118t151 -326.5t-151.5 -329.5t-426.5 -121h-844q-23 0 -39 16.5t-16 38.5zM707 352h297q47 0 70.5 32t23.5 71v2q0 39 -25.5 67.5 t-68.5 28.5h-297v-201z" />
<glyph unicode="&#x432;" d="M174 55v1323q0 23 16.5 39.5t38.5 16.5h824q291 0 429 -105.5t138 -318.5v-6q0 -98 -53.5 -168t-110.5 -88q80 -25 137.5 -108t57.5 -189q0 -451 -578 -451h-844q-23 0 -39 16.5t-16 38.5zM707 352h297q47 0 70.5 32t23.5 71v2q0 39 -25.5 67.5t-68.5 28.5h-297v-201z M707 895h274q41 0 62.5 29.5t21.5 66.5t-21.5 63.5t-62.5 26.5h-274v-186z" />
<glyph unicode="&#x433;" d="M395 55v1323q0 23 16.5 39.5t39.5 16.5h1112q23 0 39 -16.5t16 -39.5v-329q0 -23 -16.5 -39.5t-38.5 -16.5h-637l2 -938q0 -23 -16.5 -39t-39.5 -16h-421q-23 0 -39.5 16.5t-16.5 38.5z" />
<glyph unicode="&#x434;" d="M80 -199v584q0 23 16.5 39t38.5 16h33q49 0 95 43t46 115v780q0 23 16.5 39.5t39.5 16.5h1081q23 0 39 -16.5t16 -39.5v-938h105q23 0 39 -16t16 -39v-584q0 -23 -16.5 -39t-38.5 -16h-332q-23 0 -39 16.5t-16 38.5v199h-699v-199q0 -23 -16.5 -39t-38.5 -16h-330 q-23 0 -39 15.5t-16 39.5zM782 440h228v574h-209v-418q0 -117 -19 -156z" />
<glyph unicode="&#x435;" d="M184 55v1323q0 23 16.5 39.5t39.5 16.5h1273q23 0 39.5 -16.5t16.5 -39.5v-288q0 -23 -16.5 -39.5t-39.5 -16.5h-796v-129h684q23 0 39 -16.5t16 -38.5v-266q0 -23 -16.5 -39.5t-38.5 -16.5h-684v-129h817q23 0 39 -16t16 -39v-289q0 -23 -16.5 -39t-38.5 -16h-1294 q-23 0 -39.5 16.5t-16.5 38.5z" />
<glyph unicode="&#x436;" d="M-27 41q0 2 9 27l290 680l-256 618q-8 25 -8 29q0 39 37 39h365q41 0 57 -45l170 -437v426q0 23 16.5 39.5t38.5 16.5h352q23 0 39.5 -16.5t16.5 -39.5v-426l170 437q16 45 57 45h365q37 0 37 -39q0 -4 -9 -29l-256 -618l291 -680q8 -25 8 -27q0 -41 -39 -41h-360 q-53 0 -74 41l-190 473v-459q0 -23 -16.5 -39t-39.5 -16h-352q-23 0 -39 16.5t-16 38.5v459l-191 -473q-20 -41 -73 -41h-361q-39 0 -39 41z" />
<glyph unicode="&#x437;" d="M100 406q0 20 13.5 32.5t31.5 12.5h449q23 0 45.5 -21.5t32.5 -30.5q33 -23 119 -22q174 0 174 88q0 70 -158 70h-272q-23 0 -39.5 16t-16.5 39v252q0 23 16.5 39t39.5 16h272q158 0 158 70q0 43 -43 65.5t-106.5 22.5t-97.5 -7.5t-45 -15.5t-34 -29.5t-45 -21.5h-449 q-18 0 -31.5 12.5t-13.5 32.5q0 139 156 274q78 68 221.5 111t329.5 43q313 0 512 -123t199 -332q0 -109 -70 -186.5t-133 -95.5q61 -16 132 -98.5t71 -188.5q0 -209 -198 -329.5t-513 -120.5q-420 0 -608 204q-98 109 -99 222z" />
<glyph unicode="&#x438;" d="M162 55v1323q0 23 16 39.5t39 16.5h381q23 0 39 -16.5t16 -39.5v-602l447 617q31 41 80 41h331q23 0 39.5 -16.5t16.5 -39.5v-1323q0 -23 -16.5 -39t-39.5 -16h-381q-23 0 -39 16.5t-16 38.5v557l-446 -569q-33 -43 -82 -43h-330q-23 0 -39 16.5t-16 38.5z" />
<glyph unicode="&#x439;" d="M162 55v1323q0 23 16 39.5t39 16.5h381q23 0 39 -16.5t16 -39.5v-602l447 617q31 41 80 41h331q23 0 39.5 -16.5t16.5 -39.5v-1323q0 -23 -16.5 -39t-39.5 -16h-381q-23 0 -39 16.5t-16 38.5v557l-446 -569q-33 -43 -82 -43h-330q-23 0 -39 16.5t-16 38.5zM520 1724 q0 27 39 27h203q31 0 39 -27q12 -51 77.5 -51t88.5 51q12 27 39 27h202q39 0 39 -27q0 -96 -94 -162.5t-269 -66.5t-269.5 66.5t-94.5 162.5z" />
<glyph unicode="&#x43a;" d="M188 55v1323q0 23 16.5 39.5t39.5 16.5h422q23 0 39 -16.5t16 -39.5v-385l323 406q31 35 76 35h494q18 0 31.5 -13.5t13.5 -31t-10 -29.5l-486 -592l553 -696q8 -12 8 -28.5t-13 -30t-32 -13.5h-528q-47 0 -74 33l-356 440v-418q0 -23 -16.5 -39t-38.5 -16h-422 q-23 0 -39.5 16.5t-16.5 38.5z" />
<glyph unicode="&#x43b;" d="M76 35v327q0 23 16.5 39.5t38.5 16.5q86 0 119 38t33 119v803q0 23 16 39.5t39 16.5h1163q23 0 39 -16.5t16 -39.5v-1323q0 -23 -16 -39t-39 -16h-381q-23 0 -39 16.5t-16 38.5v938h-291v-411q0 -303 -169 -452.5t-472 -149.5q-23 0 -40 16t-17 39z" />
<glyph unicode="&#x43c;" d="M84 55v1323q0 23 16.5 39.5t38.5 16.5h375q57 0 88 -56l268 -491l269 491q31 56 88 56h375q23 0 39 -16.5t16 -39.5v-1323q0 -23 -16.5 -39t-38.5 -16h-371q-23 0 -39 16.5t-16 38.5v635l-150 -295q-12 -25 -36.5 -38t-49.5 -13h-139q-35 0 -57.5 18.5t-28.5 32.5 l-150 295v-635q0 -23 -16.5 -39t-38.5 -16h-371q-23 0 -39 16.5t-16 38.5z" />
<glyph unicode="&#x43d;" d="M133 55v1323q0 23 16.5 39.5t38.5 16.5h422q23 0 39.5 -16.5t16.5 -39.5v-420h409v420q0 23 16 39.5t39 16.5h422q23 0 39.5 -16.5t16.5 -39.5v-1323q0 -23 -16.5 -39t-39.5 -16h-422q-23 0 -39 16.5t-16 38.5v437h-409v-437q0 -23 -16.5 -39t-39.5 -16h-422 q-23 0 -39 15.5t-16 39.5z" />
<glyph unicode="&#x43e;" d="M109 596v242q0 309 211.5 462.5t549.5 153.5t550 -153.5t212 -458.5v-250q0 -211 -102.5 -352.5t-268 -200.5t-391 -59t-391.5 59t-268 200.5t-102 356.5zM662 553q0 -84 56 -129t152.5 -45t152.5 46t56 130v324q0 84 -56 130t-152.5 46t-152.5 -45t-56 -129v-328z" />
<glyph unicode="&#x43f;" d="M154 55v1323q0 23 16 39.5t39 16.5h1323q23 0 39 -16.5t16 -39.5v-1323q0 -23 -16.5 -39t-38.5 -16h-402q-23 0 -39 16.5t-16 38.5v936h-409v-936q0 -23 -16.5 -39t-39.5 -16h-401q-23 0 -39 15.5t-16 39.5z" />
<glyph unicode="&#x440;" d="M258 55v1323q0 23 16 39.5t39 16.5h766q291 0 461 -141.5t170 -362.5t-143.5 -351t-487.5 -130h-270v-394q0 -23 -16.5 -39t-38.5 -16h-441q-23 0 -39 16.5t-16 38.5zM811 827h260q47 0 77 29t30 80t-29 84t-78 33h-260v-226z" />
<glyph unicode="&#x441;" d="M129 596v242q0 207 104 350q197 266 658 266q186 0 335.5 -48t239.5 -126q180 -158 181 -348q0 -18 -13.5 -31.5t-31.5 -13.5h-443q-45 0 -72.5 55t-68.5 84t-132 29t-147.5 -45t-56.5 -129v-328q0 -84 56.5 -129t147.5 -45t132 28.5t68.5 84t72.5 55.5h443 q18 0 31.5 -13.5t13.5 -31.5q0 -190 -181 -348q-90 -78 -239.5 -126t-352 -48t-369.5 62t-271.5 204.5t-104.5 349.5z" />
<glyph unicode="&#x442;" d="M109 1049v329q0 23 16 39.5t39 16.5h1413q23 0 39 -16.5t16 -39.5v-329q0 -23 -16.5 -39.5t-38.5 -16.5h-440v-938q0 -23 -16.5 -39t-39.5 -16h-422q-23 0 -39 16.5t-16 38.5v938h-440q-23 0 -39 16.5t-16 39.5z" />
<glyph unicode="&#x443;" d="M174 55v328q0 23 16.5 39t38.5 16h289q115 0 127 17l-444 915q-2 6 -2 14q8 49 51 50h448q43 0 66 -50l229 -536l201 536q20 49 70 50h424q18 0 32.5 -13.5t14.5 -30t-2 -20.5l-308 -719q-88 -209 -137 -301t-141 -189.5t-219 -129t-328 -31.5h-371q-23 0 -39 16.5 t-16 38.5z" />
<glyph unicode="&#x444;" d="M78 725q0 233 158.5 377.5t418.5 187.5v109q0 23 16.5 39t39.5 16h319q23 0 39 -16.5t16 -38.5v-109q267 -41 427.5 -186.5t160.5 -384t-159.5 -389t-428.5 -193.5v-102q0 -23 -16 -39t-39 -16h-319q-23 0 -39.5 16t-16.5 39v104q-262 45 -419.5 199t-157.5 387z M518.5 717q-0.5 -139 147.5 -191v377q-147 -47 -147.5 -186zM1075 526q147 51 147.5 188.5t-147.5 188.5v-377z" />
<glyph unicode="&#x445;" d="M102 43q0 16 7 25l452 692l-403 606q-6 8 -6 24.5t13 30t32 13.5h442q53 0 86 -52l160 -262l172 266q35 47 84 48h440q18 0 31.5 -13.5t13.5 -30t-6 -24.5l-428 -633l438 -665q6 -8 6 -24.5t-13 -30t-32 -13.5h-440q-55 0 -84 47l-199 305l-194 -305q-31 -47 -84 -47 h-443q-18 0 -31.5 13.5t-13.5 29.5z" />
<glyph unicode="&#x446;" d="M215 55v1323q0 25 16.5 40.5t38.5 15.5h422q23 0 39.5 -16.5t16.5 -39.5v-938h225v938q0 23 16.5 39.5t38.5 16.5h402q23 0 39 -16.5t16 -39.5v-938h78q23 0 39 -16t16 -39v-584q0 -23 -16.5 -39t-38.5 -16h-330q-23 0 -39 16.5t-16 38.5v199h-908q-23 0 -39 16.5 t-16 38.5z" />
<glyph unicode="&#x447;" d="M31 1077l2 301q0 23 16.5 39.5t38.5 16.5h420q23 0 39 -16.5t16 -39.5v-309q0 -94 51.5 -137t126.5 -43h234v489q0 23 16.5 39.5t38.5 16.5h422q23 0 39 -16.5t16 -39.5v-1323q0 -23 -16 -39t-39 -16h-422q-23 0 -39 16.5t-16 38.5v367h-240q-434 0 -612 287 q-92 152 -92 368z" />
<glyph unicode="&#x448;" d="M84 55v1323q0 23 16.5 39.5t38.5 16.5h328q23 0 39 -16.5t16 -39.5v-938h146v938q0 23 16 39.5t39 16.5h291q23 0 39 -16.5t16 -39.5v-938h148v938q0 23 16 39.5t39 16.5h330q23 0 39 -15.5t16 -40.5v-1323q0 -23 -16 -39t-39 -16h-1463q-23 0 -39 16.5t-16 38.5z" />
<glyph unicode="&#x449;" d="M55 55v1323q0 25 16.5 40.5t39.5 15.5h327q23 0 39.5 -16.5t16.5 -39.5v-938h135v938q0 25 16.5 40.5t38.5 15.5h311q23 0 39.5 -16.5t16.5 -39.5v-938h139v938q0 23 16.5 39.5t38.5 16.5h309q23 0 39.5 -16.5t16.5 -39.5v-938h76q23 0 39 -16t16 -39v-584 q0 -23 -16.5 -39t-38.5 -16h-330q-23 0 -39.5 16.5t-16.5 38.5v199h-1189q-23 0 -39.5 16.5t-16.5 38.5z" />
<glyph unicode="&#x44a;" d="M72 1092v286q0 23 16 39.5t39 16.5h668q23 0 39 -16.5t16 -39.5v-401h235q287 0 467.5 -127t180.5 -358.5t-179.5 -361.5t-466.5 -130h-714q-23 0 -39.5 16.5t-16.5 38.5v981h-190q-23 0 -39 16.5t-16 39.5zM850 383h235q66 0 101 30.5t35 84.5q0 106 -136 106h-235v-221 z" />
<glyph unicode="&#x44b;" d="M35 55v1323q0 23 16.5 39.5t38.5 16.5h361q23 0 39 -16.5t16 -39.5v-401h92q274 0 430 -130t156 -349t-157 -358.5t-427 -139.5h-510q-23 0 -39 16.5t-16 38.5zM506 383h92q66 0 100.5 30.5t34.5 84.5q0 106 -135 106h-92v-221zM1241 55v1323q0 23 16.5 39.5t38.5 16.5 h357q23 0 39 -16.5t16 -39.5v-1323q0 -23 -16 -39t-39 -16h-357q-23 0 -39 16.5t-16 38.5z" />
<glyph unicode="&#x44c;" d="M287 55v1323q0 23 16 39.5t39 16.5h422q23 0 39 -16.5t16 -39.5v-401h236q287 0 467 -127t180 -358.5t-179.5 -361.5t-465.5 -130h-715q-23 0 -39 16.5t-16 38.5zM819 383h236q66 0 100.5 30.5t34.5 84.5q0 106 -135 106h-236v-221z" />
<glyph unicode="&#x44d;" d="M94 502q0 18 13.5 31.5t31.5 13.5h402q39 0 71 -53q70 -115 238 -115q90 0 145.5 41t61.5 115h-334q-23 0 -39 16t-16 39v252q0 23 16 39t39 16h334q-6 76 -61.5 117t-145.5 41q-168 0 -238 -115q-33 -53 -71 -53h-402q-18 0 -31.5 13t-13.5 32q0 193 210 357.5 t546 164.5q461 0 657 -266q104 -143 105 -350v-242q0 -207 -105 -350q-197 -266 -657 -266q-336 0 -546 164.5t-210 357.5z" />
<glyph unicode="&#x44e;" d="M14 55v1323q0 23 16.5 39.5t39.5 16.5h329q23 0 39.5 -16.5t16.5 -39.5v-430h145q35 258 171 382t392 124q313 0 445.5 -184.5t132.5 -555t-132 -552.5t-446 -182q-254 0 -390 130t-173 388h-145v-443q0 -23 -16.5 -39t-39.5 -16h-329q-23 0 -39.5 15.5t-16.5 39.5z M1057 557q0 -178 106.5 -178t106.5 180v315q0 180 -106.5 180.5t-106.5 -177.5v-320z" />
<glyph unicode="&#x44f;" d="M53 41q0 14 4 22l252 472q-215 124 -215 403q0 229 164 362.5t444 133.5h797q23 0 39 -16.5t16 -39.5v-1323q0 -23 -16 -39t-39 -16h-442q-23 0 -39.5 16.5t-16.5 38.5v402h-172l-180 -406q-25 -51 -86 -51h-465q-18 0 -31.5 13.5t-13.5 27.5zM651 940q0 -45 24.5 -74.5 t69.5 -29.5h256v217h-256q-47 0 -70.5 -34t-23.5 -79z" />
<glyph unicode="&#x451;" d="M184 55v1323q0 23 16.5 39.5t39.5 16.5h1273q23 0 39.5 -16.5t16.5 -39.5v-288q0 -23 -16.5 -39.5t-39.5 -16.5h-796v-129h684q23 0 39 -16.5t16 -38.5v-266q0 -23 -16.5 -39.5t-38.5 -16.5h-684v-129h817q23 0 39 -16t16 -39v-289q0 -23 -16.5 -39t-38.5 -16h-1294 q-23 0 -39.5 16.5t-16.5 38.5zM463 1544v150q0 20 13.5 33.5t33.5 13.5h238q20 0 33.5 -13.5t13.5 -33.5v-150q0 -20 -13.5 -33.5t-33.5 -13.5h-238q-20 0 -33.5 13.5t-13.5 33.5zM977 1544v150q0 20 13.5 33.5t33.5 13.5h238q20 0 33.5 -13.5t13.5 -33.5v-150 q0 -20 -13.5 -33.5t-33.5 -13.5h-238q-20 0 -33.5 13.5t-13.5 33.5z" />
<glyph unicode="&#x452;" d="M61 1061v325q0 20 13.5 34t34.5 14h1151q20 0 33.5 -13.5t13.5 -34.5v-325q0 -20 -13.5 -33.5t-33.5 -13.5h-349v-113h136q322 0 464 -134t142 -413v-94q0 -319 -138.5 -505.5t-367.5 -186.5h-143q-23 0 -39.5 16.5t-16.5 38.5v238q0 23 16.5 39t39.5 16l45 2 q74 4 117.5 53.5t43.5 141.5v227q0 133 -163 133h-136v-418q0 -23 -16 -39t-39 -16h-379q-23 0 -39 16.5t-16 38.5v959h-313q-20 0 -34 13t-14 34z" />
<glyph unicode="&#x453;" d="M395 55v1323q0 23 16.5 39.5t39.5 16.5h1112q23 0 39 -16.5t16 -39.5v-329q0 -23 -16 -39.5t-39 -16.5h-637l2 -938q0 -23 -16.5 -39t-39.5 -16h-421q-23 0 -39.5 16.5t-16.5 38.5zM770 1530q0 16 10 26l119 146q29 35 76 39h323q39 0 39 -41q0 -14 -10 -25l-194 -164 q-18 -14 -58 -14h-272q-33 0 -33 33z" />
<glyph unicode="&#x454;" d="M129 596v242q0 207 104 350q197 266 658 266q336 0 546 -165t210 -357q0 -18 -13.5 -31.5t-31.5 -13.5h-402q-39 0 -72 53q-70 115 -237 115q-90 0 -146.5 -41t-62.5 -117h336q23 0 39 -16.5t16 -38.5v-252q0 -23 -16 -39t-39 -16h-336q8 -74 63.5 -115t145.5 -41 q168 0 237 115q33 53 72 53h402q18 0 31.5 -13.5t13.5 -31.5q0 -193 -210 -357.5t-546 -164.5q-461 0 -658 266q-104 143 -104 350z" />
<glyph unicode="&#x455;" d="M127 416q0 45 47 45h420q43 0 70 -27q57 -55 198 -55q195 0 195 59q0 37 -61.5 58.5t-243.5 42.5q-580 70 -580 444q0 211 186.5 341t498.5 130t504.5 -136t192.5 -288q0 -20 -13 -32.5t-36 -12.5h-440q-37 0 -64 25q-49 45 -147 45q-137 0 -137 -58q0 -31 53 -48 t213 -36q336 -39 478.5 -144t142.5 -316t-207 -342t-549 -131t-531.5 125.5t-189.5 310.5z" />
<glyph unicode="&#x456;" d="M166 55v310q0 23 16.5 39t38.5 16h375v594h-375q-23 0 -39 16.5t-16 38.5v309q0 23 16.5 39.5t38.5 16.5h1299q23 0 39 -16.5t16 -39.5v-309q0 -23 -16 -39t-39 -16h-371v-594h371q23 0 39 -16.5t16 -38.5v-310q0 -23 -16.5 -39t-38.5 -16h-1299q-23 0 -39 16.5t-16 38.5 z" />
<glyph unicode="&#x457;" d="M166 55v310q0 23 16.5 39t38.5 16h375v594h-375q-23 0 -39 16.5t-16 38.5v309q0 23 16.5 39.5t38.5 16.5h1299q23 0 39 -16.5t16 -39.5v-309q0 -23 -16 -39t-39 -16h-371v-594h371q23 0 39 -16.5t16 -38.5v-310q0 -23 -16.5 -39t-38.5 -16h-1299q-23 0 -39 16.5t-16 38.5 zM446 1544v150q0 20 14 33.5t34 13.5h237q20 0 33.5 -13.5t13.5 -33.5v-150q0 -20 -13 -33.5t-34 -13.5h-237q-20 0 -34 13.5t-14 33.5zM961 1544v150q0 20 13.5 33.5t33.5 13.5h237q20 0 33.5 -13.5t13.5 -33.5v-150q0 -20 -13 -33.5t-34 -13.5h-237q-20 0 -33.5 13.5 t-13.5 33.5z" />
<glyph unicode="&#x458;" d="M55 502q0 18 13.5 31.5t31.5 13.5h463q37 0 51 -45q39 -123 197 -123q96 0 152.5 45t56.5 129v461h-748q-23 0 -39 16.5t-16 38.5v309q0 23 16.5 39.5t38.5 16.5h1246q23 0 39 -16.5t16 -39.5v-782q0 -311 -205 -463.5t-547 -152.5q-186 0 -337.5 48t-241.5 126 q-186 162 -187 348z" />
<glyph unicode="&#x459;" d="M4 35v327q0 23 16.5 39.5t38.5 16.5q72 0 101.5 39t29.5 118v803q0 23 16.5 39.5t39.5 16.5h844q25 0 41 -16.5t16 -39.5v-401h49q246 0 395.5 -132t149.5 -348t-149.5 -356.5t-393.5 -140.5h-407q-25 0 -40.5 17.5t-15.5 37.5v938h-94v-411q0 -602 -580 -602 q-23 0 -40 16t-17 39zM1147 383h49q66 0 100.5 30.5t34.5 83t-36 80t-99 27.5h-49v-221z" />
<glyph unicode="&#x45a;" d="M68 55v1323q0 23 16 39.5t39 16.5h299q23 0 39 -16.5t16 -39.5v-440h258v440q0 23 16.5 39.5t39.5 16.5h299q23 0 39 -16.5t16 -39.5v-401h51q246 0 395.5 -132t149.5 -348t-149.5 -356.5t-393.5 -140.5h-407q-23 0 -39.5 16.5t-16.5 38.5v457h-258v-457q0 -23 -16.5 -39 t-38.5 -16h-299q-23 0 -39 15.5t-16 39.5zM1145 383h51q66 0 100.5 30.5t34.5 83t-35.5 80t-99.5 27.5h-51v-221z" />
<glyph unicode="&#x45b;" d="M61 1061v325q0 20 13.5 34t34.5 14h1151q20 0 33.5 -13.5t13.5 -34.5v-325q0 -20 -13.5 -33.5t-33.5 -13.5h-349v-133h152q299 0 456.5 -138.5t157.5 -408.5v-279q0 -23 -16 -39t-39 -16h-381q-23 0 -39 16t-16 39v264q0 133 -123 134h-152v-398q0 -23 -16 -39t-39 -16 h-379q-23 0 -39 16.5t-16 38.5v959h-313q-20 0 -34 13t-14 34z" />
<glyph unicode="&#x45c;" d="M168 55v1323q0 23 16.5 39.5t38.5 16.5h422q23 0 39 -16.5t16 -39.5v-385l324 406q31 35 76 35h493q18 0 31.5 -13.5t13.5 -31t-10 -29.5l-485 -592l553 -696q8 -12 8 -28.5t-13.5 -30t-31.5 -13.5h-529q-47 0 -73 33l-357 440v-418q0 -23 -16 -39t-39 -16h-422 q-23 0 -39 16.5t-16 38.5zM709 1530q0 16 10 26l119 146q29 35 75 39h324q39 0 39 -41q0 -14 -10 -25l-195 -164q-18 -14 -57 -14h-273q-33 0 -32 33z" />
<glyph unicode="&#x45e;" d="M174 55v328q0 23 16.5 39t38.5 16h289q115 0 127 17l-444 915q-2 6 -2 14q8 49 51 50h448q43 0 66 -50l229 -536l201 536q20 49 70 50h424q18 0 32.5 -13.5t14.5 -30t-2 -20.5l-308 -719q-88 -209 -137 -301t-141 -189.5t-219 -129t-328 -31.5h-371q-23 0 -39 16.5 t-16 38.5zM629 1724q0 27 39 27h202q31 0 39 -27q12 -51 78 -51t88 51q14 27 39 27h203q39 0 39 -27q0 -96 -94.5 -162.5t-269.5 -66.5t-269 66.5t-94 162.5z" />
<glyph unicode="&#x45f;" d="M215 55v1323q0 25 16.5 40.5t38.5 15.5h381q23 0 39.5 -16.5t16.5 -39.5v-938h327v938q0 23 16.5 39.5t39.5 16.5h370q23 0 39.5 -16.5t16.5 -39.5v-1323q0 -23 -16.5 -39t-39.5 -16h-370v-199q0 -23 -16.5 -39t-39.5 -16h-329q-23 0 -39.5 16.5t-16.5 38.5v199h-379 q-23 0 -39 16.5t-16 38.5z" />
<glyph unicode="&#x490;" d="M416 55v1323q0 23 16.5 39.5t38.5 16.5h756v252q0 23 16.5 39t38.5 16h363q23 0 39 -16.5t16 -38.5v-637q0 -25 -15.5 -40.5t-39.5 -15.5h-699l2 -938q0 -23 -16 -39t-39 -16h-422q-23 0 -39 16.5t-16 38.5z" />
<glyph unicode="&#x491;" d="M416 55v1323q0 23 16.5 39.5t38.5 16.5h756v252q0 23 16.5 39t38.5 16h363q23 0 39 -16.5t16 -38.5v-637q0 -25 -15.5 -40.5t-39.5 -15.5h-699l2 -938q0 -23 -16 -39t-39 -16h-422q-23 0 -39 16.5t-16 38.5z" />
<glyph unicode="&#x2000;" horiz-adv-x="880" />
<glyph unicode="&#x2001;" horiz-adv-x="1761" />
<glyph unicode="&#x2002;" horiz-adv-x="880" />
<glyph unicode="&#x2003;" horiz-adv-x="1761" />
<glyph unicode="&#x2004;" horiz-adv-x="587" />
<glyph unicode="&#x2005;" horiz-adv-x="440" />
<glyph unicode="&#x2006;" horiz-adv-x="293" />
<glyph unicode="&#x2007;" horiz-adv-x="293" />
<glyph unicode="&#x2008;" horiz-adv-x="220" />
<glyph unicode="&#x2009;" horiz-adv-x="352" />
<glyph unicode="&#x200a;" horiz-adv-x="97" />
<glyph unicode="&#x2010;" d="M424 535v290q0 23 16 39.5t39 16.5h785q23 0 39 -16.5t16 -39.5v-290q0 -23 -16.5 -39.5t-38.5 -16.5h-785q-23 0 -39 16.5t-16 39.5z" />
<glyph unicode="&#x2011;" d="M424 535v290q0 23 16 39.5t39 16.5h785q23 0 39 -16.5t16 -39.5v-290q0 -23 -16.5 -39.5t-38.5 -16.5h-785q-23 0 -39 16.5t-16 39.5z" />
<glyph unicode="&#x2012;" d="M424 535v290q0 23 16 39.5t39 16.5h785q23 0 39 -16.5t16 -39.5v-290q0 -23 -16.5 -39.5t-38.5 -16.5h-785q-23 0 -39 16.5t-16 39.5z" />
<glyph unicode="&#x2013;" d="M305 541v278q0 23 16 39t39 16h1020q23 0 39.5 -16t16.5 -39v-278q0 -23 -16.5 -39.5t-39.5 -16.5h-1020q-23 0 -39 16.5t-16 39.5z" />
<glyph unicode="&#x2014;" d="M92 541v278q0 23 16 39t39 16h1444q23 0 39.5 -16t16.5 -39v-278q0 -23 -16.5 -39.5t-39.5 -16.5h-1444q-23 0 -39 16.5t-16 39.5z" />
<glyph unicode="&#x2018;" d="M571 875.5q0 13.5 2 19.5l195 494q25 66 94 65h262q18 0 31.5 -13.5t13.5 -31.5v-4l-75 -490q-4 -31 -32 -55t-67 -24h-379q-18 0 -31.5 13t-13.5 26.5z" />
<glyph unicode="&#x2019;" d="M571 881v4l76 489q4 31 31.5 55.5t66.5 24.5h379q18 0 31.5 -13.5t13.5 -26.5t-2 -19l-194 -494q-25 -66 -94 -65h-263q-18 0 -31.5 13t-13.5 32z" />
<glyph unicode="&#x201a;" d="M571 -139l76 489q4 31 31.5 55.5t66.5 24.5h379q18 0 31.5 -13.5t13.5 -26.5t-2 -19l-194 -494q-25 -66 -94 -65h-263q-18 0 -31.5 13t-13.5 32v4z" />
<glyph unicode="&#x201c;" d="M260 875.5q0 13.5 2 19.5l195 494q25 66 94 65h262q18 0 31.5 -13.5t13.5 -31.5v-4l-76 -490q-4 -31 -31.5 -55t-66.5 -24h-379q-18 0 -31.5 13t-13.5 26.5zM885 875.5q0 13.5 2 19.5l194 494q25 66 95 65h262q18 0 31.5 -13.5t13.5 -31.5v-4l-76 -490q-4 -31 -31.5 -55 t-66.5 -24h-379q-18 0 -31.5 13t-13.5 26.5z" />
<glyph unicode="&#x201d;" d="M258 881v4l76 489q4 31 31.5 55.5t66.5 24.5h379q18 0 31.5 -13.5t13.5 -26.5t-2 -19l-195 -494q-25 -66 -94 -65h-262q-18 0 -31.5 13t-13.5 32zM883 881v4l75 489q4 31 32 55.5t67 24.5h379q18 0 31.5 -13.5t13.5 -26.5t-2 -19l-195 -494q-25 -66 -94 -65h-262 q-18 0 -31.5 13t-13.5 32z" />
<glyph unicode="&#x201e;" d="M258 -139l76 489q4 31 31.5 55.5t66.5 24.5h379q18 0 31.5 -13.5t13.5 -26.5t-2 -19l-195 -494q-25 -66 -94 -65h-262q-18 0 -31.5 13t-13.5 32v4zM883 -139l75 489q4 31 32 55.5t67 24.5h379q18 0 31.5 -13.5t13.5 -26.5t-2 -19l-195 -494q-25 -66 -94 -65h-262 q-18 0 -31.5 13t-13.5 32v4z" />
<glyph unicode="&#x2020;" d="M322 748v270q0 23 16 39t39 16h291v305q0 23 16 39.5t39 16.5h295q23 0 39 -16.5t16 -39.5v-305h293q23 0 39 -16.5t16 -38.5v-270q0 -23 -16 -39.5t-39 -16.5h-293v-637q0 -23 -16.5 -39t-38.5 -16h-295q-23 0 -39 16.5t-16 38.5v637h-291q-23 0 -39 16.5t-16 39.5z" />
<glyph unicode="&#x2021;" d="M322 313v271q0 23 16 39t39 16h291v176h-291q-23 0 -39 16.5t-16 38.5v271q0 23 16 39t39 16h291v182q0 23 16 39.5t39 16.5h295q23 0 39 -16.5t16 -39.5v-182h293q23 0 39 -16.5t16 -38.5v-271q0 -23 -16 -39t-39 -16h-293v-176h293q23 0 39 -16.5t16 -38.5v-271 q0 -23 -16 -39t-39 -16h-293v-203q0 -23 -16.5 -39t-38.5 -16h-295q-23 0 -39 16.5t-16 38.5v203h-291q-23 0 -39 16.5t-16 38.5z" />
<glyph unicode="&#x2022;" d="M555 889q0 131 92 223t223 92t223.5 -92t92.5 -223t-92.5 -223.5t-223.5 -92.5t-223 92.5t-92 223.5z" />
<glyph unicode="&#x2026;" d="M102 55v295q0 23 16.5 39.5t39.5 16.5h307q23 0 39 -16.5t16 -39.5v-295q0 -23 -16.5 -39t-38.5 -16h-307q-23 0 -39.5 16.5t-16.5 38.5zM662 55v295q0 23 16 39.5t39 16.5h307q23 0 39 -16.5t16 -39.5v-295q0 -23 -16 -39t-39 -16h-307q-23 0 -39 16.5t-16 38.5z M1221 55v295q0 23 16 39.5t39 16.5h307q23 0 39 -16.5t16 -39.5v-295q0 -23 -16 -39t-39 -16h-307q-23 0 -39 16.5t-16 38.5z" />
<glyph unicode="&#x202f;" horiz-adv-x="352" />
<glyph unicode="&#x2030;" d="M16 1001v148q0 145 70 225t189.5 80t189.5 -80t70 -223v-152q0 -145 -67 -224t-191.5 -79t-192.5 79t-68 226zM45 41q0 12 8 22l848 1332q25 39 74 39h110q49 0 50 -41q0 -12 -9 -23l-847 -1331q-25 -39 -74 -39h-111q-49 0 -49 41zM229 981q0 -70 47.5 -70t47.5 70v193 q0 68 -47.5 68t-47.5 -68v-193zM651 285v147q0 145 70 225t189.5 80t189 -80t69.5 -223v-151q0 -145 -66.5 -224t-191.5 -79t-192.5 78.5t-67.5 226.5zM864 264q0 -70 47 -69.5t47 69.5v193q0 68 -47 68t-47 -68v-193zM1204 285v147q0 145 69.5 225t189.5 80t189.5 -80 t69.5 -223v-151q0 -145 -66.5 -224t-191.5 -79t-192.5 78.5t-67.5 226.5zM1417 264q0 -70 47 -69.5t47 69.5v193q0 68 -47 68t-47 -68v-193z" />
<glyph unicode="&#x2039;" d="M582 627v94q0 33 28 57l437 414q12 10 29.5 10t29.5 -12t12 -31v-315q0 -18 -6 -27.5t-31 -32.5l-116 -110l116 -111q35 -41 37 -59v-316q0 -18 -12 -30.5t-29.5 -12.5t-29.5 11l-437 413q-28 25 -28 58z" />
<glyph unicode="&#x203a;" d="M623 188v316q0 18 6 27.5t30 31.5l117 111l-117 110q-35 41 -36 60v315q0 18 12 30.5t29.5 12.5t29.5 -10l436 -414q29 -24 29 -57v-94q0 -33 -29 -58l-436 -413q-12 -10 -29.5 -10.5t-29.5 12t-12 30.5z" />
<glyph unicode="&#x2044;" d="M223 41q0 12 8 22l1012 1332q29 39 74 39h151q49 0 50 -41q0 -12 -9 -23l-1011 -1331q-29 -39 -74 -39h-152q-49 0 -49 41z" />
<glyph unicode="&#x205f;" horiz-adv-x="440" />
<glyph unicode="&#x20ac;" d="M0 600v238q0 23 16 39t39 16h84q20 279 229.5 420t530.5 141q186 0 335.5 -48t240.5 -126q180 -158 180 -348q0 -18 -13.5 -31.5t-31.5 -13.5h-443q-45 0 -72.5 55t-68.5 84t-130 29t-145.5 -42t-60.5 -120h195q23 0 39 -16.5t16 -38.5v-238q0 -23 -16.5 -39t-38.5 -16 h-195q2 -80 58.5 -123t146.5 -43t131 28.5t68.5 84t72.5 55.5h443q18 0 31.5 -13.5t13.5 -31.5q0 -190 -180 -348q-90 -78 -240 -126t-347.5 -48t-360 57t-269 187t-119.5 321h-84q-23 0 -39 16.5t-16 38.5z" />
<glyph unicode="&#x2122;" d="M287 1268v145q-1 21 22 21h434q23 0 23 -21v-145q0 -23 -23 -23h-108v-336q0 -20 -21 -20h-176q-20 0 -20 20v336h-109q-23 0 -22 23zM829 909v504q0 20 23 21h143q12 0 33 -21l113 -188l112 188q21 21 33 21h144q23 0 22 -21v-504q0 -20 -22 -20h-160q-23 0 -23 20v193 l-49 -84q-14 -18 -31 -19h-53q-16 0 -31 19l-49 84v-193q0 -20 -22 -20h-160q-23 0 -23 20z" />
<glyph unicode="&#x2202;" d="M236 463v16q0 229 184 356.5t450 127.5h29q-88 205 -356 387q-27 18 -27 37.5t13.5 33t31.5 13.5h426q70 0 109 -27q186 -133 297.5 -345t111.5 -472v-127q0 -236 -172 -359.5t-462.5 -123.5t-462.5 123.5t-172 359.5zM737 457q0 -139 133 -140q57 0 95.5 34t38.5 106v51 q-2 59 -41 88t-94.5 29t-93.5 -34t-38 -106v-28z" />
<glyph unicode="&#x2206;" d="M119 55v92q0 29 12 62l447 1075q29 68 92 68h403q63 0 92 -68l447 -1075q12 -33 12 -62v-92q0 -23 -16 -39t-39 -16h-1395q-23 0 -39 16.5t-16 38.5zM676 385h391l-197 533z" />
<glyph unicode="&#x220f;" d="M227 -354v1732q0 23 16.5 39.5t39.5 16.5h1175q23 0 39 -16.5t16 -39.5v-1732q0 -23 -16 -39.5t-39 -16.5h-366q-23 0 -39.5 16.5t-16.5 39.5v1272h-331v-1272q0 -23 -16.5 -39.5t-39.5 -16.5h-366q-23 0 -39.5 15.5t-16.5 40.5z" />
<glyph unicode="&#x2211;" d="M227 2q0 47 31 76q8 10 31 26l573 408l-573 408q-62 45 -62 102v356q0 23 16.5 39.5t39.5 16.5h1175q23 0 39 -16.5t16 -39.5v-405q0 -23 -16 -39t-39 -16h-485l473 -287q68 -51 67 -90v-58q0 -39 -67 -90l-473 -287h485q23 0 39 -16t16 -39v-405q0 -23 -16 -39.5 t-39 -16.5h-1175q-23 0 -39.5 16.5t-16.5 39.5v356z" />
<glyph unicode="&#x221a;" d="M53 1019.5q0 14.5 14.5 29t34.5 14.5h306q49 0 67 -49l164 -455l346 1153q19 49 68 49h579q23 0 39.5 -16t16.5 -39v-238q0 -23 -16.5 -39t-39.5 -16h-301l-440 -1362q-16 -51 -68 -51h-368q-51 0 -68 51l-332 948q-2 6 -2 20.5z" />
<glyph unicode="&#x221e;" d="M37 553q0 178 117.5 316.5t331.5 138t384 -184.5q170 184 384 184.5t332 -138t118 -316.5q0 -252 -201 -383q-104 -70 -248 -70q-217 0 -385 187q-168 -186 -385 -187q-143 0 -247 70q-201 131 -201 383zM375 554q0 -52 39 -86t81 -34t84 30t64 60l25 29q-33 45 -82 83 t-92 38t-81 -34t-38 -86zM1073 553q10 -12 26.5 -32.5t61.5 -53.5t86 -33t80 34t39 86t-38 86t-80 34t-85 -30t-65 -60z" />
<glyph unicode="&#x222b;" d="M420 -106q0 23 16.5 39t38.5 16h64q129 0 129 129v930q0 195 135 310.5t340 115.5h104q23 0 39.5 -16.5t16.5 -39.5v-248q0 -23 -16.5 -39t-39.5 -16h-63q-129 0 -129 -129v-930q0 -195 -135.5 -310.5t-339.5 -115.5h-105q-23 0 -39 16.5t-16 39.5v248z" />
<glyph unicode="&#x2248;" d="M369 285v200q0 68 70.5 116t174 48t262 -43t255 -43t155.5 53q20 16 44 17.5t33 -16t9 -58.5v-201q0 -68 -70.5 -115.5t-174 -47.5t-262 43t-255 43t-155.5 -54q-20 -16 -44 -17t-33 16.5t-9 58.5zM369 803v201q0 67 70.5 115t174 48t262 -43t255 -43t155.5 54 q20 16 44 17t33 -16.5t9 -58.5v-200q0 -68 -70.5 -116t-174 -48t-262 43t-255 43t-155.5 -54q-20 -16 -44 -17t-33 16.5t-9 58.5z" />
<glyph unicode="&#x2260;" d="M381 328v237q0 23 16.5 39.5t38.5 16.5h234l67 163h-301q-23 0 -39 16.5t-16 39.5v237q0 23 16 39.5t39 16.5h447l32 79q27 61 91 62h192q18 0 31.5 -13.5t13.5 -26.5t-4 -24l-33 -77h101q23 0 39 -16.5t16 -39.5v-237q0 -23 -16.5 -39.5t-38.5 -16.5h-246l-70 -163h316 q23 0 39 -16.5t16 -39.5v-237q0 -23 -16.5 -39.5t-38.5 -16.5h-461l-35 -82q-25 -61 -90 -61h-186q-18 0 -32 13.5t-14 26.5t5 24l32 79h-90q-23 0 -39 16.5t-16 39.5z" />
<glyph unicode="&#x2264;" d="M338 55v224q0 23 16 39t39 16h875q23 0 39 -16.5t16 -38.5v-224q0 -23 -16.5 -39t-38.5 -16h-875q-23 0 -39 16.5t-16 38.5zM338 838v127q0 59 59 86l860 368q16 6 28.5 6t25 -12t12.5 -31v-270q0 -70 -66 -90l-358 -121l358 -123q66 -25 66 -88v-270q0 -18 -12.5 -30.5 t-24.5 -12.5t-29 6l-860 369q-59 27 -59 86z" />
<glyph unicode="&#x2265;" d="M418 55v224q0 23 16 39t39 16h875q23 0 39 -16.5t16 -38.5v-224q0 -23 -16.5 -39t-38.5 -16h-875q-23 0 -39 16.5t-16 38.5zM418 420v270q0 63 65 88l359 123l-359 121q-66 20 -65 90v270q0 18 12 30.5t24.5 12.5t28.5 -6l860 -368q60 -27 60 -86v-127q0 -59 -60 -86 l-860 -369q-16 -6 -28.5 -6t-24.5 12t-12 31z" />
<glyph unicode="&#x25ca;" d="M258 727.5q0 22.5 16 44.5l385 614q42 68 103 68h217q61 0 102 -68l385 -614q16 -23 16.5 -45t-16.5 -45l-385 -614q-41 -68 -102 -68h-217q-61 0 -103 68l-385 614q-16 23 -16 45.5zM688 727l182 -293l183 293l-183 291z" />
<glyph unicode="&#x25fc;" horiz-adv-x="1433" d="M0 0v1434h1434v-1434h-1434z" />
</font>
</defs>
</svg>
